<svg xmlns="http://www.w3.org/2000/svg" xmlns:xlink="http://www.w3.org/1999/xlink" viewBox="0 0 1342.96 201.66"><defs><style>.cls-1{fill:none;}.cls-2{fill:#70b2e2;}.cls-3{fill:#37474f;}.cls-4{fill:#f37021;}.cls-5{fill:#fcb316;}.cls-6{fill:#d42026;}.cls-7{fill:#2b66b1;}.cls-8{fill:#fff;}.cls-9{fill:#fec111;}.cls-10{clip-path:url(#clip-path);}.cls-11{fill:#2d98d4;}.cls-12{fill:#293990;}.cls-13{fill:#3374ba;}</style><clipPath id="clip-path" transform="translate(0 0)"><rect class="cls-1" x="380.43" width="201.66" height="201.66"/></clipPath></defs><g id="Layer_2" data-name="Layer 2"><g id="Layer_1-2" data-name="Layer 1"><rect class="cls-2" x="680.2" width="282.32" height="201.66" rx="26.89"/><rect class="cls-3" x="680.2" y="33.61" width="282.32" height="40.33"/><rect class="cls-4" x="861.69" y="117.2" width="47.05" height="47.92"/><path class="cls-5" d="M908.75,107.55a33.45,33.45,0,0,0-23.53,9.65,33.52,33.52,0,0,1,0,47.92,33.6,33.6,0,1,0,23.53-57.57Z" transform="translate(0 0)"/><path class="cls-6" d="M875.14,141.16a33.46,33.46,0,0,1,10.08-24,33.61,33.61,0,1,0,0,47.92,33.48,33.48,0,0,1-10.08-24Z" transform="translate(0 0)"/><rect class="cls-7" width="282.32" height="201.66" rx="26.89"/><path class="cls-8" d="M81.91,67.22,64.26,119.86S59.78,97.6,59.33,94.8c-10-22.93-24.87-21.65-24.87-21.65l17.47,68H73.18l29.38-73.93Zm16.83,73.94H118l11.67-73.94H110.16ZM235.32,67.22H215l-31.66,73.94h19.17l4-10.56h24.17l2,10.56h17.57Zm-23.5,49.26,10.51-27.95,5.5,28ZM157.08,88.77c0-4.07,3.35-7.11,12.95-7.11,6.24,0,13.38,4.53,13.38,4.53l3.13-15.52s-9.12-3.46-18.08-3.46c-20.3,0-30.76,9.71-30.76,22,0,22.22,26.74,19.17,26.74,30.59,0,2-1.55,6.48-12.69,6.48a41.24,41.24,0,0,1-18.54-4.1l-3.33,14.9s7.15,4.07,21,4.07,33-10.35,33-25.22c0-17.89-26.79-19.18-26.79-27.16Z" transform="translate(0 0)"/><path class="cls-9" d="M61.92,107.18,55.43,75.26s-2.94-6.91-10.58-6.91H15s38.05,11.24,46.91,38.83Z" transform="translate(0 0)"/><g class="cls-10"><path class="cls-7" d="M457.17,43.51h0a5.48,5.48,0,0,1,5.35-4.31H538a2.66,2.66,0,0,1,.28,0C536.69,12.41,514.24,0,494.42,0H419a5.52,5.52,0,0,0-5.35,4.35h0l-33,151.45h.07a4.9,4.9,0,0,0-.22,1.09,5.55,5.55,0,0,0,5.6,5.55h45.21Z" transform="translate(0 0)"/><path class="cls-11" d="M538.3,39.18A59.72,59.72,0,0,1,537,55.32c-7.18,33.58-33.12,51.06-65.17,51.06H447.68a5.14,5.14,0,0,0-4.92,3L433,154.49l-1.71,8h0L424.19,195h.08a4.81,4.81,0,0,0-.22,1.08,5.6,5.6,0,0,0,5.6,5.61h41.08l.07-.06a5.52,5.52,0,0,0,5.29-4.41l.1-.09L486.34,150a5.43,5.43,0,0,1,5.44-4.5h23.4c32.06,0,58.26-17.4,65.44-51,8.08-37.87-18.93-55.16-42.32-55.3Z" transform="translate(0 0)"/></g><path class="cls-12" d="M462.55,39.21a5.48,5.48,0,0,0-5.35,4.31h0l-14.42,65.9a5.14,5.14,0,0,1,4.93-3H471.4c32.06,0,58.44-17.48,65.61-51.06a59.79,59.79,0,0,0,1.29-16.15,2.66,2.66,0,0,0-.28,0Z" transform="translate(0 0)"/><rect class="cls-13" x="1060.64" width="282.32" height="201.66" rx="26.89"/><path class="cls-8" d="M1190.07,73.94l-14.2,31.48-14.14-31.48h-18.12v45.21l-20.18-45.21h-15.29l-20.61,46.92h12.19l4.52-10.47h23.07l4.58,10.47h23.29V86l15.45,34.85h10.51l15.8-34.24v34.24h11.58V73.94Zm-81.47,26.31,6.89-16.4,7.17,16.4Zm186.51-3.37,21-22.82h-14.91l-13.4,14.55-13-14.67h-46.12v46.93h44.6l14.07-15.53L1301.06,121h14.85ZM1267.19,111h-27v-9.28H1266v-8.9h-25.79V84.05l28.46.08,11.38,12.75Z" transform="translate(0 0)"/></g></g></svg>