<?xml version="1.0" encoding="utf-8"?>
<!-- Generator: Adobe Illustrator 24.1.1, SVG Export Plug-In . SVG Version: 6.00 Build 0)  -->
<svg version="1.1" id="Layer_1" xmlns="http://www.w3.org/2000/svg" xmlns:xlink="http://www.w3.org/1999/xlink" x="0px" y="0px"
	 viewBox="0 0 620 360" style="enable-background:new 0 0 620 360;" xml:space="preserve">
<style type="text/css">
	.st0{fill:#FCFCFC;}
	.st1{fill:#FFDE17;}
	.st2{fill:#FFFFFF;}
	.st3{fill:#3F92D1;}
	.st4{fill:#A8CFF0;}
	.st5{fill:#72B5E8;}
	.st6{opacity:0.7;fill:#72B5E8;}
	.st7{fill:#D1EBFF;}
	.st8{fill:#F0F8FF;}
	.st9{fill:#2672AB;}
	.st10{opacity:0.1;fill:#603913;}
	.st11{fill:#FCCDB7;}
	.st12{fill:#F9B69E;}
	.st13{fill:#022652;}
	.st14{fill:#001A46;}
	.st15{fill:#D62D69;}
	.st16{fill:#08488C;}
	.st17{fill:#03336E;}
	.st18{fill:#EB4680;}
	.st19{fill:#084C94;}
	.st20{fill:#0FBAB8;}
	.st21{fill:#0BA19F;}
	.st22{fill:#3ECFCD;}
	.st23{fill:#FFCC00;}
	.st24{fill:#FFD70F;}
</style>
<rect class="st0" width="620" height="360"/>
<g>
	<polygon class="st1" points="456.1,238.3 232.5,360 443.5,360 525.7,287.1 532.9,282.6 525.9,278.6 	"/>
	<polygon class="st2" points="441.8,52.9 441.8,230 532.9,282.6 532.9,105.5 	"/>
	<polygon class="st3" points="539.9,287 532.9,291.1 532.9,105.5 539.9,101.4 	"/>
	<polygon class="st3" points="455.8,238.4 448.8,242.5 448.8,56.9 455.8,52.8 	"/>
	<polygon class="st4" points="448.9,48.8 441.9,52.9 532.9,105.5 539.9,101.4 	"/>
	<polygon class="st2" points="532.8,104.1 441.9,52.9 532.9,105.5 539.9,101.4 	"/>
	<polygon class="st5" points="441.8,52.9 441.8,238.5 448.8,242.6 448.8,64.9 525.9,109.5 525.9,287.1 532.9,291.1 532.9,105.5 	"/>
	<g>
		<polygon class="st4" points="385.3,107.2 385.3,280.7 453.2,241.5 453.2,67.9 		"/>
		<g>
			<g>
				<polygon class="st6" points="393.3,116.8 445.1,86.9 445.1,95.6 393.3,125.5 				"/>
				<polygon class="st7" points="443.6,87.8 443.6,94.7 445.1,95.6 445.1,86.9 				"/>
				<polygon class="st8" points="443.6,94.7 393.3,123.7 393.3,125.5 445.1,95.6 				"/>
			</g>
			<g>
				<polygon class="st6" points="393.3,136.7 445.1,106.8 445.1,115.5 393.3,145.4 				"/>
				<polygon class="st7" points="443.6,107.7 443.6,114.6 445.1,115.5 445.1,106.8 				"/>
				<polygon class="st8" points="443.6,114.6 393.3,143.6 393.3,145.4 445.1,115.5 				"/>
			</g>
			<g>
				<polygon class="st6" points="393.3,156.6 445.1,126.7 445.1,135.4 393.3,165.3 				"/>
				<polygon class="st7" points="443.6,127.6 443.6,134.5 445.1,135.4 445.1,126.7 				"/>
				<polygon class="st8" points="443.6,134.5 393.3,163.5 393.3,165.3 445.1,135.4 				"/>
			</g>
			<g>
				<polygon class="st6" points="393.3,176.5 445.1,146.6 445.1,155.3 393.3,185.2 				"/>
				<polygon class="st7" points="443.6,147.5 443.6,154.4 445.1,155.3 445.1,146.6 				"/>
				<polygon class="st8" points="443.6,154.4 393.3,183.4 393.3,185.2 445.1,155.3 				"/>
			</g>
			<g>
				<polygon class="st6" points="393.3,196.4 445.1,166.5 445.1,175.2 393.3,205.1 				"/>
				<polygon class="st7" points="443.6,167.4 443.6,174.3 445.1,175.2 445.1,166.5 				"/>
				<polygon class="st8" points="443.6,174.3 393.3,203.3 393.3,205.1 445.1,175.2 				"/>
			</g>
			<g>
				<polygon class="st6" points="393.3,216.3 445.1,186.4 445.1,195.1 393.3,225 				"/>
				<polygon class="st7" points="443.6,187.3 443.6,194.2 445.1,195.1 445.1,186.4 				"/>
				<polygon class="st8" points="443.6,194.2 393.3,223.2 393.3,225 445.1,195.1 				"/>
			</g>
			<g>
				<polygon class="st6" points="393.3,236.2 445.1,206.3 445.1,215 393.3,244.9 				"/>
				<polygon class="st7" points="443.6,207.2 443.6,214.1 445.1,215 445.1,206.3 				"/>
				<polygon class="st8" points="443.6,214.1 393.3,243.1 393.3,244.9 445.1,215 				"/>
			</g>
			<g>
				<polygon class="st6" points="393.3,256.1 445.1,226.2 445.1,234.9 393.3,264.8 				"/>
				<polygon class="st7" points="443.6,227.1 443.6,234 445.1,234.9 445.1,226.2 				"/>
				<polygon class="st8" points="443.6,234 393.3,263 393.3,264.8 445.1,234.9 				"/>
			</g>
		</g>
		<polygon class="st7" points="385.3,107.2 385.3,280.7 381.7,278.5 381.7,104.9 		"/>
		<polygon class="st8" points="381.7,104.9 385.3,107.2 453.2,67.9 449.5,65.7 		"/>
		<polygon class="st2" points="381.7,104.9 385.3,107.2 453.2,67.9 385.6,105.5 		"/>
	</g>
	<g>
		<polygon class="st4" points="389.7,186.5 389.7,204.5 395.1,201.3 395.1,183.4 		"/>
		<polygon class="st7" points="389.7,186.5 389.7,204.5 388.8,204 388.8,186.1 		"/>
		<polygon class="st8" points="388.8,186.1 389.7,186.5 395.1,183.4 394.3,182.9 		"/>
		<path class="st9" d="M393.6,197.1c0-0.7-0.5-0.9-1.1-0.6c-0.6,0.3-1.1,1.2-1.1,1.8c0,0.5,0.3,0.8,0.7,0.7v2l0.7-0.4v-2
			C393.3,198.2,393.6,197.6,393.6,197.1z"/>
		<path class="st8" d="M392.2,191.8c1.8,0.1,7-2.2,9.1-4.3c2-2,2.2-4,2.7-3.3c0.5,0.8-1.4,5.1-4,6.8c-3.7,2.5-6.6,3.2-7.7,3.1
			C390.8,194.1,391,191.8,392.2,191.8z"/>
		<path class="st7" d="M404,184.3c-0.1-0.2-0.2-0.2-0.3-0.1c0.1,1.3-1.7,4.9-4,6.5c-3.7,2.5-6.6,3.2-7.7,3.1c-0.3,0-0.5-0.1-0.7-0.2
			c0.2,0.4,0.5,0.7,1,0.7c1.1,0.1,4-0.6,7.7-3.1C402.6,189.4,404.5,185.1,404,184.3z"/>
	</g>
</g>
<g>
	<path class="st10" d="M492.5,286c-15.7,8.7-22.5,0-31.1-5c-8.2-4.7-8.5-12.7,2.5-18c11.9-5.7,13.9-3,25.3,3.7
		C500.7,273.3,501.5,281,492.5,286z"/>
	<path class="st11" d="M464.9,158.1c-5.4,0.8-12.1,5.2-15.8,6.6s-7.5,2.8-8,2.7c-0.5-0.1-3.1-1.4-4-1.2c-0.9,0.2-1.8,0.7-1.9,1
		c-0.2,0.3-0.5,1.5-0.2,2.2c0,0.1,1.1,0.2,1.1,0.2s-2.1,1.3-2.7,2.7c-0.6,1.4-0.5,2-0.6,3.1c0,0.9,0.2,1.6,0.5,1.7
		c0.4,0.1,0.6,0,0.6,0s-0.1,1.5,0.6,1.9c0.7,0.4,0.7,0.4,0.7,0.4s0.4,0.9,0.8,1c0.4,0.1,0.9-0.2,0.9-0.2s-0.1,0.2,0.7,0.1
		c0.8-0.1,1.3-1.6,2-2.2c0.7-0.5,2.3-1.6,2.9-2.7c0.7-1,1.3-2.5,2.7-3.1s9.2-2.7,11.3-3.1c4.1-0.8,11.5-4.4,11.5-4.4L464.9,158.1z"
		/>
	<path class="st12" d="M438.5,167.9c-0.4-0.3-1.6-0.3-1.6-0.3s-0.3,0.4-0.7,1c-0.4,0.6-0.9,0.7-1.4,0.6c0,0.1,0,0.1,0.1,0.2
		c0.1,0.3,0.7,0.3,1,0.2l0.3-0.2c0,0,0.2,0.2,0.1,1c0,0.8,2.2,3.5,3.3,3.5c1.1,0,1.5-0.5,2-2.5C442.2,169.3,439.7,168.7,438.5,167.9
		z"/>
	<path class="st12" d="M435,179.3c0,0,0.2-1.3,0.1-1.7c-0.1-0.4-0.2-0.9-0.2-0.9s0.9-1.1,1.4-1.7c0.5-0.7,0.7-1.2,0.7-1.2l0.6,1.1
		l-1.7,1.9l-0.4,3.2L435,179.3z"/>
	<path class="st12" d="M436.6,180.2c0,0,0.2-0.6,0.1-1.2c-0.1-0.5-0.1-0.7-0.1-0.7l1.6-2.3l0.8,1c0,0-1.1,0.6-1.4,1.2
		c-0.3,0.5-0.5,2.1-0.5,2.1L436.6,180.2z"/>
	<path class="st12" d="M433.5,177.7c0,0,0.4-1.2,0.7-1.8c0.3-0.6,0.8-1.7,0.8-1.8s1.1-1,1.1-1l-0.9-0.9c0,0-0.2,0.5-0.5,1
		c-0.4,0.6-0.9,1.1-0.9,1.5c-0.1,0.7-0.5,1.6-0.5,2C433.2,176.9,433.5,177.7,433.5,177.7z"/>
	<path class="st12" d="M458.9,168.6c4.1-1.3,9.1-3.7,9.1-3.7l-3.2-6.7c-1.7,0.2-3.6,0.9-5.5,1.7
		C460.2,162.7,459.7,165.3,458.9,168.6z"/>
	<path class="st13" d="M453.6,215.3c-4.5,5.7,27.9,18,42.4,9.4c1.9-1.1-25.7-11.8-31-11.8S457,211,453.6,215.3z"/>
	<path class="st11" d="M463,183.3c0,0-2.3,13-2.2,24.5s0.9,16.8,0.9,20c-0.1,3.1,0.4,5.1,1.5,8.5s6.1,14.9,6.5,17.9
		c0.4,3-0.4,8.5-2.7,11.3c-2.2,2.9-7.5,7-4.1,8.7c3.4,1.7,10.4-7.8,12.7-9.8c2.3-1.9,3.6-4,2.3-6.3c-1.3-2.3-2.4-4.7-2.2-11.1
		c0.2-6.4-0.2-11.4-1.4-13.9c-1.3-2.5-3.4-4.3-3.2-5c0.2-0.7,7.8-27.7,7.8-27.7l0.6-0.2c0,0-0.8,11.8-0.2,17.3
		c0.6,5.6,2.2,11.2,2.5,13.9c0.2,2.6,0.2,4.3,0.2,5.9c0,1.6,0.3,8.2,0.5,13.6c0.2,5.3-0.2,15.8-1.3,18.7c-1.1,3-2.9,7.6-4.7,9.9
		c-1.8,2.3,0.7,4.3,3.6,3.9c2.9-0.4,6.4-5.6,8.3-9.3c1.9-3.7,1.7-5,0.7-7.6c-1-2.7,0.2-7,1.1-10.5c1-3.5,3.2-12.1,3.2-16.3
		c0-4.2-2.5-9.3-2.3-11.7c0.1-2.4,4-15.1,4.4-22.8c0.4-7.7,0.5-12.9-1-17.6c-1.6-4.7-6.8-8.9-6.8-8.9L463,183.3z"/>
	<path class="st13" d="M464.2,268.6c0,0-0.6,1.1,0.7,2.4c1.3,1.4,4.6-0.2,5.8-2c1.2-1.8,3.3-5.8,5.2-7.2c2.2-1.6,1.3-4.9,1.3-4.9
		s2.6,1.8,2.4,3.8c-0.2,2-1.9,5.6-1.9,7.1c0,1.4-0.1,2.5-0.1,2.5l-1.7,1l-1.8-1.4v-2.6c0,0-1.1,1-2,2.7c-0.9,1.7-1.6,3.9-3.5,5.2
		c-2,1.2-6.2,2.1-8,0.6c-1.6-1.3-1.7-3.4-0.3-4.9C461.6,269.7,464.2,268.6,464.2,268.6z"/>
	<path class="st13" d="M476.1,279.3c0,0-2.7,1.9-3.1,4.5c-0.4,2.6,1.9,3.8,4.4,3.7c2.5-0.2,6.1-2,7.1-3.6c1-1.5,2.6-4.5,2.6-4.5
		l1.6,0.7l1.4-1.1c0,0-0.1-2.4,0.5-4.4c0.6-2,1.6-3.7,0.7-5.8c-0.9-2-2.5-2.6-2.5-2.6s1.5,2-0.7,5.5c-2,3.2-2.9,4.8-3.7,7.2
		c-0.9,2.3-3.4,3-5.8,2.3S476.1,279.3,476.1,279.3z"/>
	<polygon class="st14" points="474.2,267.3 474.2,269.9 476,271.3 476.4,264.8 	"/>
	<polygon class="st14" points="487.1,279.4 488.7,280.1 488.7,275.5 487.8,277.6 	"/>
	<path class="st12" d="M487.4,178.7l-24.4,4.6c0,0-2.3,13-2.2,24.5c0,5.3,0.2,9.3,0.4,12.4c4.2,0,8.1,2.4,10.4,5.2
		c2-7,7-24.9,7-24.9l0.6-0.2c0,0-0.8,11.8-0.2,17.3c0.3,2.7,0.8,5.5,1.3,7.9c1,1.3,3,3.5,5.7,5.1c4.2,2.6,6.3,5.8,7,9.1v0v0
		c0-4.2-2.5-9.3-2.3-11.7c0.1-2.4,4-15.1,4.4-22.8c0.4-7.7,0.5-12.9-1-17.6C492.6,182.9,487.4,178.7,487.4,178.7z"/>
	<path class="st15" d="M481.4,110.8c3.9,1.2,7.2,6.9,7,14.1c-0.2,7.1,3.4,12.8,5.7,16.7c7.3,12.8-1,24.1-9.4,31.9
		c-2.4,2.3-3.6-25.3-4.4-34.8C479.5,129.2,478.8,110.1,481.4,110.8z"/>
	<path class="st15" d="M467.6,114.3c-5,2.4-3.6,19.5-1.8,24.4c1.8,4.9,10.6,2.3,14.4,0.7C484.1,137.8,480.9,107.8,467.6,114.3z"/>
	<path class="st11" d="M471.5,135.3c-5.4-0.2-8.2,0-10.7,3.7c-2.5,3.7,3.4,20.7,3.4,20.7L471.5,135.3z"/>
	<path class="st16" d="M468.4,135.1c0,0-3.2,6-5.5,9.6c-2.3,3.6-5.2,6.3-4.8,10.7c0.3,4.4,3.7,5.6,4.2,10.6c0.5,5,1.1,8.6,0.2,14
		c-0.9,5.6-3,23.3-8.9,35.2c3.2,0.4,3.9,4.3,7.9,4.5c5.9,0.2,9.1-2,16.6,4.2c8.2,6.8,19.1,2.8,23.8-1.5c-6-7.8-2.8-23.9-7.3-34.6
		c-2.3-5.6-9.7-12.3-9.5-16.2c0.2-3.8,3.6-10.5,4.7-16.4c1.1-5.9,3.1-9.3-1.2-12C484.4,140.4,471.6,134.1,468.4,135.1z"/>
	<path class="st17" d="M485.2,171.6c0.1-1.4,0.6-3.3,1.3-5.4l-4-2.3c0,0,0.1,3.7,2.6,11.1c2.4,7.3,4.8,15.6,5.5,24.7
		c0.8,9.1-0.4,17.5,11.3,22.6c-6-7.8-2.8-23.9-7.3-34.6C492.3,182.1,484.9,175.4,485.2,171.6z"/>
	<path class="st17" d="M485.3,170.6c0.6-3.7,3.3-9.4,4.4-14.6l-5.5-2.9c0,0-6.7,10.9-13.2,10.7c-6.6-0.2-3.8-7.4-3.8-7.4l-1.6-0.6
		c0,0-0.3,1.3-3.7,2.3c-1.1,0.3-2.2,0.2-3.2-0.1c0.8,2,2.2,3.4,3,5.6c0.1,0.4,1.6,1.2,4.1,0.4c2.1,2.4,5.5,3.6,7.6,3.4
		C477.5,167,479.9,166.5,485.3,170.6z"/>
	<path class="st11" d="M472.5,110.9c-4,0.9-6.6,4.8-6.6,11.5c0,6.8,0.7,12.7,3,13.4c2.3,0.7,7.2-0.5,9.4-2.3c2.1-1.8,7.5-5.4,8-11.7
		C486.7,115.5,482.5,108.7,472.5,110.9z"/>
	<path class="st11" d="M472.7,135.2c0.2,2.5-1,4.6-1.4,5.2c-0.7,1.2-1.7,3.4,1.9,5c3.5,1.6,7.9-2,9.3-2.7c1.4-0.8,3.1-1.1,3.1-1.1
		s-2.3-2.5-2.4-5.9c-0.1-3.4,1.9-11.6,1.9-11.6L472.7,135.2z"/>
	<path class="st11" d="M485.7,144.3c-3.4,1.3-3.7,8.1-0.7,15c3,6.9,5.7,15.8,5.7,15.8s-2.7,2.8-5.5,5.6c-2.8,2.8-4.2,4.9-4.7,5.4
		s-1.7,1.2-3.6,2.5c-1.9,1.4-2.9,2-2.9,2s-1,0-1.8-0.5c-0.8-0.5-1.6-1-2.2-0.9s-0.4,0.2-0.4,0.2s-0.4-0.5-0.9-0.2
		c-0.2,0.2-0.4,0.5-0.2,0.7c0.2,0.3,0.5,0.6,0.5,0.6s-0.4,0.1-0.3,0.5c0.1,0.4,1,1.3,2.1,1.9s2.9,1.6,3.4,1.4
		c0.6-0.2,2.7-0.4,3.4-0.7c0.7-0.3,2.9-2.7,4.7-3.4c1.8-0.6,15.6-11.4,16.2-12.3c0.6-1,0.8-1.6,0.3-4c-0.5-2.4-2.8-9.9-3.6-15.8
		C494.4,152.4,493.3,141.2,485.7,144.3z"/>
	<g>
		<path class="st12" d="M498.7,174.1c-0.5-2.4-2.8-9.9-3.6-15.8c-0.7-5.6-1.8-16-8.4-14.4c5,0.6,5.9,9.5,6.5,14.5
			c0.8,5.9,3,13.4,3.6,15.8c0.5,2.4,0.3,3-0.3,4c-0.6,1-14.4,11.7-16.2,12.3c-1.8,0.6-4,3.1-4.7,3.4c-0.4,0.2-1.4,0.3-2.3,0.5
			c0.3,0.1,0.6,0.2,0.7,0.1c0.6-0.2,2.7-0.4,3.4-0.7c0.7-0.3,2.9-2.7,4.7-3.4c1.8-0.6,15.6-11.4,16.2-12.3
			C499,177.1,499.3,176.5,498.7,174.1z"/>
	</g>
	<path class="st12" d="M475.6,191.4c-0.8-0.1-1.7-0.7-2-0.2c-0.3,0.5,0.8,1.1,1.9,1.2c1.1,0.2,3.4-0.5,3.4-0.5s-2.2,1-3.3,0.8
		s-3.4-1.2-4.1-1.8c-0.9-0.8-1.6-1.7-1.9-1.6c-0.3,0.1,0.1,0.8,0.7,1.4c0.6,0.5,1.1,1.1,1.8,1.4c0.6,0.3,3.3,1.2,3.3,1.2
		s-2.9,0.5-4.1-0.1c-0.9-0.5-1.6-0.8-2.4-2.1c-0.1-0.2,0-0.6-0.1-0.6c-0.2-0.3-0.3-0.4-0.7-0.3c-0.5,0.2,0.4,2.3,2.2,3.5
		c1.8,1.2,5.6,1.1,7,0.6c1.4-0.5,5.3-4.1,5.3-4.1s-2.9-0.1-3.7,0.2C477.3,191.1,476.3,191.5,475.6,191.4z"/>
	<path class="st18" d="M470.2,113.2c-1,4.9,4.4,6.6,6.3,10.7c0.4,0.9,1.7-1.4,2.9-0.7c2.5,1.3-0.9,3.9-2,9.6
		c-0.7,3.8-0.9,6.4,1.4,9.5c4.1,5.5-1,15.4-1,15.4s5.3-0.6,10.4-9.3c4.8-8-3.3-10.5-1.7-15.7c2.4-8.2,2.9-21.5-6.7-22.8
		C468.9,108.5,470.2,113.2,470.2,113.2z"/>
	<path class="st15" d="M469.7,117.3c-3.8,0.9-4.6,5.7-3.8,10.8c0.8,5.1,2.4,9.2,1.6,13.4c-0.8,4.2-1.3,5.4-1.3,7.4c0,2,1,4.4,1,4.4
		s-4.3-2.1-2.6-9.2c1.7-7.1-2.2-13.9,0.2-25c2.1-9.9,10.8-10.8,15-8.9C482.6,111.7,474.1,116.2,469.7,117.3z"/>
	<path class="st18" d="M470,115.1c-3.9,0.9-4.8,4.5-4.6,9.6c0.2,4.6,1.2,9.7-0.1,13.2c-1.3,3.5-1.3,3.8-1.5,5.7
		c-0.2,1.7,1.2,5.6,1.2,5.6s-5.2-4.4-2.6-10.4c2.6-6,0.9-13,3-22.3c1.5-6.9,11-8.9,15.7-6C483.4,112.1,470,115.1,470,115.1z"/>
	<path class="st15" d="M483,114.2c4.7,7.9,0.3,16.7-0.4,22.8c-0.4,3.5,3.5,2.8,0.8,14c5.4-11,0.5-10.7,1.2-14.7
		C485.9,128.7,488.8,121,483,114.2z"/>
	<path class="st12" d="M479.3,186.9c-0.6,0.4-1.4,1-2.5,1.7c-0.2,0.2-0.4,0.3-0.6,0.4c-0.7,0.5-1.2,0.8-1.6,1.1
		c0.2,0.1,0.5,0.2,0.7,0.2c0.9,0.3,2.8-0.7,4.4-1.8C481.4,187.7,480.4,187.1,479.3,186.9z"/>
	<path class="st12" d="M468.7,190.5c0,0-0.3-0.4-0.3-0.8c0-0.2,0.2-0.4,0.2-0.4s1.4,2.5,2.5,3.1c1.2,0.6,4.4,1.2,4.4,1.2
		s-0.4,0.3-1.4,0.3c-1-0.1-2.7-0.6-3.2-1.1C469.8,191.8,468.7,190.5,468.7,190.5z"/>
	<path class="st11" d="M477.6,186c-0.3,0.4,0.3,1,0.8,1.1c0.5,0.1,2.1,0.6,2.3,0.8c0.2,0.2,0.8,1.5,2.3,0.6c1.4-0.9,0.7-1.8-0.6-2
		C481.1,186.3,478.4,184.8,477.6,186z"/>
</g>
<g>
	<g>
		<polygon class="st8" points="430.1,214.9 430.1,220.6 396.5,201.1 396.5,195.1 		"/>
		<polygon class="st7" points="430.1,214.9 430.1,220.6 463.6,201.4 463.6,195.3 		"/>
		<polygon class="st4" points="430.1,219.2 430.1,220.6 396.5,201.1 396.5,199.4 		"/>
		<polygon class="st5" points="430.1,219.2 430.1,220.6 463.6,201.4 463.6,199.6 		"/>
		<polygon class="st8" points="463.6,195.3 430.1,214.9 396.5,195.1 430,175.7 		"/>
		<polygon class="st2" points="463.6,195.3 430.1,214.9 396.5,195.1 430,213.5 		"/>
	</g>
	<g>
		<polygon class="st8" points="430.1,208 430.1,213.8 396.5,194.3 396.5,188.3 		"/>
		<polygon class="st7" points="430.1,208 430.1,213.8 463.6,194.5 463.6,188.5 		"/>
		<polygon class="st4" points="430.1,212.3 430.1,213.8 396.5,194.3 396.5,192.6 		"/>
		<polygon class="st5" points="430.1,212.3 430.1,213.8 463.6,194.5 463.6,192.8 		"/>
		<polygon class="st2" points="463.6,188.5 430.1,208 396.5,188.3 430,168.8 		"/>
		<polygon class="st2" points="463.6,188.5 430.1,208 396.5,188.3 430,206.6 		"/>
	</g>
	<path class="st10" d="M414.6,333.3c-17.1,6.5-24,3.8-35.7-3s-17.1-13.7-4.8-19.9c16.1-8.1,27.1-2.9,38.8,3.9
		S423.8,329.8,414.6,333.3z"/>
	<path class="st14" d="M372.8,317.5c0,0-0.9,3.3-0.2,4.7c0.7,1.4,3.7,2.5,6.1,1.3c2.4-1.2,3.5-3.7,4.4-4.3s6.1-1.3,10-4.5
		c3.9-3.3,3.4-6.9-0.5-7c-3.9-0.1-10.9,1.7-13.4,3.4C376.6,312.6,372.8,317.5,372.8,317.5z"/>
	<path class="st13" d="M374.6,321c2.8,0.6,6.3-1.8,8-3.2c1.6-1.4,4.5-0.7,8.3-3.6s5.1-5,3.4-6c-1.7-1-7.9-0.7-12.8,1.9
		c-4.9,2.6-8.1,4.5-8.1,4.5s-1.2,3.6-0.6,4.4C373.3,319.8,373,320.7,374.6,321z"/>
	<path class="st9" d="M375.1,230.3c0,0-4.9,9.2-1.5,28.5c1.9,11-0.5,33.2-1,41.1c-0.5,8-3.3,17.8,0.8,19.8c2.3,1.2,6.5,0.5,9.8-3.3
		c3.3-3.8,3.9-7.4,3.6-8.1c-0.4-0.7-1-3.8,0.3-10.4c1.3-6.6,3.9-22.7,3.7-27.9c-0.2-5.2-2.1-29.8-2.1-29.8L375.1,230.3z"/>
	<path class="st19" d="M390.7,270.2c0.2,5.2-2.4,21.3-3.7,27.9c-1.3,6.6-0.7,9.7-0.3,10.4c0.4,0.7-0.3,4.3-3.6,8.1
		c-1.3,1.5-2.7,2.5-4.1,3.1c1.4-2.7,3.5-8.1,3.5-17.2c0-13.6,2.8-31,3.2-40.5c0.2-5.6-4.8-14-1.1-22.8l3.9,1.2
		C388.6,240.3,390.5,264.9,390.7,270.2z"/>
	<path class="st14" d="M393,329.4c0,0-1.4,4.3,0.3,5.2s4.5,1.4,6.8,0.5c2.2-1,3.2-2,5.5-2c2.4,0,11.6-4.5,13.4-6.8
		c1.8-2.2,0-4.8-4.4-4.5c-4.4,0.3-10.7,0.9-11.8,1.3C401.6,323.5,393,329.4,393,329.4z"/>
	<path class="st13" d="M395,332.6c4.1,0.5,5.5-0.7,9.3-1.4c3.8-0.8,14.7-5.2,14.5-7.6c-0.2-2.4-2.7-1.9-4.8-1.7
		c-2.1,0.2-8.8,0.7-9.3,0.7c-0.5,0-11.5,4.9-11.5,4.9s-0.8,3.6-0.1,4.1C393.8,332,393.9,332.4,395,332.6z"/>
	<path class="st9" d="M386.7,238c0,0-3.2,4.4-0.6,17.2c2.3,11.1,6,20.6,6.1,32.2c0.1,11.7-1.3,41.8,0.5,43.4c1.8,1.7,8,2.3,10.6,0.4
		c4.1-3,6.3-7.3,5.9-8.8c-0.4-1.5-3.6-6.8-2.5-11.6c1.1-4.7,4.7-21.1,4-32.3c-0.7-11.2-2.6-40.3-2.6-40.3L386.7,238z"/>
	<path class="st11" d="M396.4,152.8c2.6,1.3,5.3,3.4,5.4,10c0.1,6.6,0.2,9.7-1.1,10.6c-1.3,0.9-2.3,0-2.6,1.8
		c-0.3,1.8,0.3,4.9,0.3,4.9l-14.4-3.2c0,0,1-2.3,0.1-4.7c-0.9-2.4-5.1-7-1.9-13.8C385.4,151.7,393.3,151.3,396.4,152.8z"/>
	<path class="st17" d="M402,158.4c0,1.3-0.7,3.3-2.5,3.4c-1.8,0.1-2.6,2.2-2.2,3.2c0.4,1,0.1,1.3,0.1,1.3s-1.3-0.5-1.9,0.5
		c-0.6,1.1,0.2,3.3,0.6,4.1c0.4,0.9-2.6,3.5-5,3.7c-2.4,0.2-5.7-0.1-6.8-1.3c-1.1-1.3-4.9-5.5-3.6-12.2c1.4-6.7,7.6-10.7,13.3-9.6
		C399.7,152.7,401.9,156.6,402,158.4z"/>
	<path class="st8" d="M404.7,188.6c0,0-1.9-9.5-8.7-10.8c-3.2-0.6-6.1-0.3-8.2-1.3c-2.2-1-3.3-2.8-3.3-2.8s-2.5,0.7-0.6,2.9
		S404.7,188.6,404.7,188.6z"/>
	<path class="st19" d="M400.7,239.3l7.4-1c0,0,1.9,29.1,2.6,40.3c0.7,11.2-3,27.5-4,32.3c-1.1,4.7,2.1,10.1,2.5,11.6
		c0.4,1.4-1.4,5-4.9,8c0.5-6.2,0-12.7-0.3-17.2c-0.4-5.1,3.4-23.7,2.4-34.9C405.3,268.7,401.6,245.2,400.7,239.3z"/>
	<path class="st20" d="M389.4,178.9c-5.8-1.3-6.3-3.9-6.3-3.9s-3.6,0.5-6.3,0.9c-3.8,0.5-6.5,4.6-6.1,9.7c1,10.4,4.7,23.1,3.5,39.5
		c-0.5,6.5-3.1,11.9-3,18.2c2.3,5.2,32.1,6.7,37.6-0.2c-0.7-12.5-3.2-17.5-3.2-26.6c0-11.2,3.2-19.8,0.1-26.6c-3-6.7-7.5-9-10.5-9.7
		C392.2,179.3,389.4,178.9,389.4,178.9z"/>
	<path class="st21" d="M408.9,243c-0.7-12.5-3.2-17.5-3.2-26.6c0-6.1,0.9-11.5,1.3-16.2c-0.5-2.8-1-5.2-1.1-6.7
		c-4.1-3.4-7.1-7.7-10.4-1.9c-4.3,7.5-2.1,12.7,0.1,24.1c1.9,9.8,7.4,12.1,10,21.4c0.6,2.3,1.4,4.7,2.1,7.1
		C408.2,243.8,408.6,243.4,408.9,243z"/>
	<path class="st13" d="M380.6,161.7c1.2,1,3.3,2.2,6.8,2.8c3.6,0.7,7.2,0.1,9.8-0.6c-0.1,0.4-0.1,0.8,0,1.1c0.4,1,0.1,1.3,0.1,1.3
		s-1.3-0.5-1.9,0.5c-0.6,1.1,0.2,3.3,0.6,4.1c0.4,0.9-2.6,3.5-5,3.7c-2.4,0.2-5.7-0.1-6.8-1.3C383.2,172.1,379.5,168.1,380.6,161.7z
		"/>
	<g>
		<path class="st11" d="M437.9,209.3c2.2-1.9,3.9-3.4,5.1-4.7c1.3-1.4,2.7-2.7,3.4-2c1.3,1.4-4.2,7.2-4.2,7.2L437.9,209.3z"/>
		<path class="st11" d="M435.9,217.6c0,0,6.9,0.8,10.4-0.5c3.3-1.3,8.6-7.6,7.7-9.5c-0.5-1-1.4,0.2-1.4,0.2s1.3-1.4,1.1-2.3
			c-0.2-0.9-0.8-0.7-1.8,0c-1.2,0.9-4.1,2.8-6.9,3c-2.9,0.3-5-1-6.9,0.5c-1.9,1.5-5,1.4-5,1.4L435.9,217.6z"/>
		<path class="st20" d="M395.5,187c-4.2,2.4-4.1,7.1-2.1,11.6c2.4,5.4,12.5,24.4,17.7,25.3c5.3,0.9,28-4.6,28-4.6s0.4-4-0.1-6.7
			c-0.5-2.7-2.2-3.3-2.2-3.3s-15.9,3.7-20.5,2.5c-2.2-0.6-4.2-8.9-8.7-18.5C405,187.7,399.5,184.7,395.5,187z"/>
	</g>
	<g>
		<path class="st21" d="M395.8,165.1c0,0,9.5-3.6,10.5-8.3c1-4.6-6.1-7.6-11.8-4.8C388.8,154.8,395.8,165.1,395.8,165.1z"/>
		<path class="st22" d="M395.8,164.6c0,0,9.5-3.6,10.5-8.3c1-4.6-6.1-7.6-11.8-4.8C388.8,154.2,395.8,164.6,395.8,164.6z"/>
		<path class="st20" d="M383.8,150.4c-6.8,4.2-5.2,14.6-3.3,16.5c1.9,1.9,14.4,2.4,21.6-7.1C404.6,156.6,396.2,142.7,383.8,150.4z"
			/>
		<path class="st21" d="M384.1,150.9c-0.1,0.1-0.2,0.1-0.4,0.2c-6.8,4.1-5.2,13.9-3.2,15.8c1,1,4.6,1.6,9,0.7
			C384.6,161.2,384,155.5,384.1,150.9z"/>
	</g>
	<path class="st18" d="M443.3,181l-20.4,3.7c1,1.8,2.8,3.6,5.3,5c2.6,1.5,5.7,2.5,8.9,3.1L443.3,181z"/>
	<path class="st23" d="M438,193.5c-0.5,0.9-2.2,1.3-3.7,1c-3.2-0.8-6.1-1.9-8.5-3.3c-2.5-1.4-4.4-3-5.7-4.9
		c-0.6-0.8,0.2-1.8,1.7-2.1l0,0c1.3-0.2,2.7,0.1,3.3,0.8c1.2,1.4,2.8,2.7,4.7,3.8c2,1.2,4.3,2.1,6.8,2.8
		C437.8,192,438.4,192.8,438,193.5L438,193.5z"/>
	<g>
		<path class="st20" d="M416.9,188.7l1.4,0.8c0.5,0.3,0.7,0.6,0.7,0.8c0,0.3-0.3,0.6-0.8,0.8l-0.6,0.3c-0.5,0.3-1,0.4-1.5,0.4
			c-0.5,0-1-0.1-1.4-0.4l-0.5-0.3l-2.5,1.4l-1-0.5L416.9,188.7z M415.6,191.1c0.2,0.1,0.3,0.1,0.5,0.1c0.2,0,0.3-0.1,0.6-0.2
			l0.7-0.4c0.2-0.1,0.3-0.2,0.3-0.3c0-0.1-0.1-0.2-0.2-0.3l-0.5-0.3l-1.8,1.1L415.6,191.1z"/>
		<path class="st20" d="M420.2,190.7l1,0.5l-6,3.5l-1-0.5L420.2,190.7z"/>
		<path class="st20" d="M416.5,194.5l6.1-1.5l-1.7-1l0.9-0.5l2.7,1.6l-0.8,0.5l-6.1,1.5l1.8,1l-0.9,0.5l-2.8-1.6L416.5,194.5z"/>
		<path class="st20" d="M419.7,196.3l6.1-1.5l-1.7-1l0.9-0.5l2.7,1.6l-0.8,0.5l-6.1,1.5l1.8,1l-0.9,0.5l-2.8-1.6L419.7,196.3z"/>
		<path class="st20" d="M428.9,195.7l1.3,0.7l-5,4l-1-0.5l1-0.8l0,0l-1.1-0.6l-1.4,0.6l-0.9-0.5L428.9,195.7z M425.9,198.6l2.6-2
			l0,0l-3.4,1.5L425.9,198.6z"/>
	</g>
	<path class="st2" d="M436.5,187.8c1.2-0.7,1.2-1.9,0-2.6c-1.2-0.7-3.2-0.7-4.4,0l1.3,0.8l-1.6,0.9l1.8,1l1.6-0.9L436.5,187.8z"/>
</g>
<g>
	<g>
		<path class="st7" d="M277.7,322.8c-0.2,0-0.3-0.1-0.4-0.3c-0.1-0.2,0-0.5,0.2-0.7l36.2-20.3c0.2-0.1,0.5,0,0.7,0.2
			c0.1,0.2,0,0.5-0.2,0.7L278,322.7C277.9,322.8,277.8,322.8,277.7,322.8z"/>
	</g>
	<g>
		<path class="st24" d="M297.3,317.3c-0.2,0-0.3-0.1-0.4-0.3c-0.1-0.2,0-0.5,0.2-0.7l1.7-1c0.2-0.1,0.5,0,0.7,0.2
			c0.1,0.2,0,0.5-0.2,0.7l-1.7,1C297.4,317.3,297.3,317.3,297.3,317.3z M301.6,314.9c-0.2,0-0.3-0.1-0.4-0.3c-0.1-0.2,0-0.5,0.2-0.7
			l1.7-1c0.2-0.1,0.5,0,0.7,0.2c0.1,0.2,0,0.5-0.2,0.7l-1.7,1C301.8,314.9,301.7,314.9,301.6,314.9z M306,312.4
			c-0.2,0-0.3-0.1-0.4-0.3c-0.1-0.2,0-0.5,0.2-0.7l1.7-1c0.2-0.1,0.5,0,0.7,0.2c0.1,0.2,0,0.5-0.2,0.7l-1.7,1
			C306.2,312.4,306.1,312.4,306,312.4z M310.4,310c-0.2,0-0.3-0.1-0.4-0.3c-0.1-0.2,0-0.5,0.2-0.7l1.7-1c0.2-0.1,0.5,0,0.7,0.2
			c0.1,0.2,0,0.5-0.2,0.7l-1.7,1C310.5,310,310.4,310,310.4,310z M314.7,307.6c-0.2,0-0.3-0.1-0.4-0.3c-0.1-0.2,0-0.5,0.2-0.7l1.7-1
			c0.2-0.1,0.5,0,0.7,0.2c0.1,0.2,0,0.5-0.2,0.7l-1.7,1C314.9,307.5,314.8,307.6,314.7,307.6z M319.1,305.1c-0.2,0-0.3-0.1-0.4-0.3
			c-0.1-0.2,0-0.5,0.2-0.7l1.7-1c0.2-0.1,0.5,0,0.7,0.2c0.1,0.2,0,0.5-0.2,0.7l-1.7,1C319.2,305.1,319.2,305.1,319.1,305.1z
			 M323.4,302.7c-0.2,0-0.3-0.1-0.4-0.3c-0.1-0.2,0-0.5,0.2-0.7l1.7-1c0.2-0.1,0.5,0,0.7,0.2c0.1,0.2,0,0.5-0.2,0.7l-1.7,1
			C323.6,302.6,323.5,302.7,323.4,302.7z M327.8,300.2c-0.2,0-0.3-0.1-0.4-0.3c-0.1-0.2,0-0.5,0.2-0.7l1.7-1c0.2-0.1,0.5,0,0.7,0.2
			c0.1,0.2,0,0.5-0.2,0.7l-1.7,1C328,300.2,327.9,300.2,327.8,300.2z M332.2,297.8c-0.2,0-0.3-0.1-0.4-0.3c-0.1-0.2,0-0.5,0.2-0.7
			l1.7-1c0.2-0.1,0.5,0,0.7,0.2c0.1,0.2,0,0.5-0.2,0.7l-1.7,1C332.3,297.8,332.2,297.8,332.2,297.8z M336.5,295.3
			c-0.2,0-0.3-0.1-0.4-0.3c-0.1-0.2,0-0.5,0.2-0.7l1.7-1c0.2-0.1,0.5,0,0.7,0.2c0.1,0.2,0,0.5-0.2,0.7l-1.7,1
			C336.7,295.3,336.6,295.3,336.5,295.3z M340.9,292.9c-0.2,0-0.3-0.1-0.4-0.3c-0.1-0.2,0-0.5,0.2-0.7l1.7-1c0.2-0.1,0.5,0,0.7,0.2
			c0.1,0.2,0,0.5-0.2,0.7l-1.7,1C341.1,292.9,341,292.9,340.9,292.9z"/>
	</g>
	<g>
		<path class="st7" d="M390,93.8c-0.2,0-0.3-0.1-0.4-0.3c-0.1-0.2-0.1-0.5,0.2-0.7L412,80.2c0.2-0.1,0.5-0.1,0.7,0.2
			c0.1,0.2,0.1,0.5-0.2,0.7l-22.3,12.7C390.2,93.8,390.1,93.8,390,93.8z"/>
	</g>
	<g>
		<path class="st24" d="M550.6,133.2c-0.3,0-0.5-0.2-0.5-0.5v-2c0-0.3,0.2-0.5,0.5-0.5c0.3,0,0.5,0.2,0.5,0.5v2
			C551.1,133,550.8,133.2,550.6,133.2z M550.6,128.2c-0.3,0-0.5-0.2-0.5-0.5v-2c0-0.3,0.2-0.5,0.5-0.5c0.3,0,0.5,0.2,0.5,0.5v2
			C551.1,128,550.8,128.2,550.6,128.2z M550.6,123.2c-0.3,0-0.5-0.2-0.5-0.5v-2c0-0.3,0.2-0.5,0.5-0.5c0.3,0,0.5,0.2,0.5,0.5v2
			C551.1,123,550.8,123.2,550.6,123.2z M550.6,118.2c-0.3,0-0.5-0.2-0.5-0.5v-2c0-0.3,0.2-0.5,0.5-0.5c0.3,0,0.5,0.2,0.5,0.5v2
			C551.1,118,550.8,118.2,550.6,118.2z M550.6,113.2c-0.3,0-0.5-0.2-0.5-0.5v-2c0-0.3,0.2-0.5,0.5-0.5c0.3,0,0.5,0.2,0.5,0.5v2
			C551.1,113,550.8,113.2,550.6,113.2z M550.6,108.2c-0.3,0-0.5-0.2-0.5-0.5v-2c0-0.3,0.2-0.5,0.5-0.5c0.3,0,0.5,0.2,0.5,0.5v2
			C551.1,108,550.8,108.2,550.6,108.2z M550.6,103.2c-0.3,0-0.5-0.2-0.5-0.5v-2c0-0.3,0.2-0.5,0.5-0.5c0.3,0,0.5,0.2,0.5,0.5v2
			C551.1,103,550.8,103.2,550.6,103.2z M550.6,98.2c-0.3,0-0.5-0.2-0.5-0.5c0-0.6-0.1-1.3-0.2-1.9c0-0.3,0.1-0.5,0.4-0.6
			c0.3,0,0.5,0.1,0.6,0.4c0.1,0.7,0.2,1.4,0.2,2.1C551.1,98,550.9,98.2,550.6,98.2C550.6,98.2,550.6,98.2,550.6,98.2z M549.5,93.4
			c-0.2,0-0.4-0.1-0.5-0.3c-0.2-0.6-0.5-1.2-0.9-1.7c-0.1-0.2-0.1-0.5,0.2-0.7c0.2-0.1,0.5-0.1,0.7,0.2c0.3,0.6,0.7,1.2,0.9,1.9
			c0.1,0.3,0,0.5-0.3,0.7C549.6,93.3,549.6,93.4,549.5,93.4z M546.8,89.2c-0.1,0-0.3-0.1-0.4-0.2c-0.4-0.5-0.9-0.9-1.4-1.3
			c-0.2-0.2-0.2-0.5-0.1-0.7c0.2-0.2,0.5-0.2,0.7-0.1c0.5,0.4,1,0.9,1.5,1.4c0.2,0.2,0.2,0.5,0,0.7C547.1,89.1,547,89.2,546.8,89.2z
			 M542.9,86.1c-0.1,0-0.2,0-0.3-0.1l-1.7-1c-0.2-0.1-0.3-0.4-0.2-0.7c0.1-0.2,0.4-0.3,0.7-0.2l1.7,1c0.2,0.1,0.3,0.4,0.2,0.7
			C543.2,86,543.1,86.1,542.9,86.1z M538.6,83.6c-0.1,0-0.2,0-0.3-0.1l-1.7-1c-0.2-0.1-0.3-0.4-0.2-0.7c0.1-0.2,0.4-0.3,0.7-0.2
			l1.7,1c0.2,0.1,0.3,0.4,0.2,0.7C538.9,83.5,538.7,83.6,538.6,83.6z M534.3,81.1c-0.1,0-0.2,0-0.3-0.1l-1.7-1
			c-0.2-0.1-0.3-0.4-0.2-0.7c0.1-0.2,0.4-0.3,0.7-0.2l1.7,1c0.2,0.1,0.3,0.4,0.2,0.7C534.6,81,534.4,81.1,534.3,81.1z M529.9,78.6
			c-0.1,0-0.2,0-0.3-0.1l-1.7-1c-0.2-0.1-0.3-0.4-0.2-0.7c0.1-0.2,0.4-0.3,0.7-0.2l1.7,1c0.2,0.1,0.3,0.4,0.2,0.7
			C530.3,78.5,530.1,78.6,529.9,78.6z M525.6,76c-0.1,0-0.2,0-0.3-0.1l-1.7-1c-0.2-0.1-0.3-0.4-0.2-0.7c0.1-0.2,0.4-0.3,0.7-0.2
			l1.7,1c0.2,0.1,0.3,0.4,0.2,0.7C526,76,525.8,76,525.6,76z M521.3,73.5c-0.1,0-0.2,0-0.3-0.1l-1.7-1c-0.2-0.1-0.3-0.4-0.2-0.7
			c0.1-0.2,0.4-0.3,0.7-0.2l1.7,1c0.2,0.1,0.3,0.4,0.2,0.7C521.6,73.4,521.5,73.5,521.3,73.5z"/>
	</g>
	<g>
		<path class="st7" d="M546.3,156.2c-0.3,0-0.5-0.2-0.5-0.5v-48.7c0-0.3,0.2-0.5,0.5-0.5c0.3,0,0.5,0.2,0.5,0.5v48.7
			C546.8,156,546.5,156.2,546.3,156.2z"/>
	</g>
	<g>
		<path class="st24" d="M371.7,160.7c-0.3,0-0.5-0.2-0.5-0.5v-1.4c0-0.3,0.2-0.5,0.5-0.5s0.5,0.2,0.5,0.5v1.4
			C372.2,160.5,372,160.7,371.7,160.7z M371.7,156.3c-0.3,0-0.5-0.2-0.5-0.5v-2c0-0.3,0.2-0.5,0.5-0.5s0.5,0.2,0.5,0.5v2
			C372.2,156.1,372,156.3,371.7,156.3z M371.7,151.3c-0.3,0-0.5-0.2-0.5-0.5v-2c0-0.3,0.2-0.5,0.5-0.5s0.5,0.2,0.5,0.5v2
			C372.2,151.1,372,151.3,371.7,151.3z M371.7,146.3c-0.3,0-0.5-0.2-0.5-0.5v-2c0-0.3,0.2-0.5,0.5-0.5s0.5,0.2,0.5,0.5v2
			C372.2,146.1,372,146.3,371.7,146.3z M371.7,141.3c-0.3,0-0.5-0.2-0.5-0.5v-2c0-0.3,0.2-0.5,0.5-0.5s0.5,0.2,0.5,0.5v2
			C372.2,141.1,372,141.3,371.7,141.3z M371.7,136.3c-0.3,0-0.5-0.2-0.5-0.5v-2c0-0.3,0.2-0.5,0.5-0.5s0.5,0.2,0.5,0.5v2
			C372.2,136.1,372,136.3,371.7,136.3z M371.7,131.3c-0.3,0-0.5-0.2-0.5-0.5v-2c0-0.3,0.2-0.5,0.5-0.5s0.5,0.2,0.5,0.5v2
			C372.2,131.1,372,131.3,371.7,131.3z M371.7,126.3c-0.3,0-0.5-0.2-0.5-0.5v-2c0-0.3,0.2-0.5,0.5-0.5s0.5,0.2,0.5,0.5v2
			C372.2,126.1,372,126.3,371.7,126.3z M371.7,121.3c-0.3,0-0.5-0.2-0.5-0.5v-2c0-0.3,0.2-0.5,0.5-0.5s0.5,0.2,0.5,0.5v2
			C372.2,121.1,372,121.3,371.7,121.3z M371.7,116.3c-0.3,0-0.5-0.2-0.5-0.5v-2c0-0.3,0.2-0.5,0.5-0.5s0.5,0.2,0.5,0.5v2
			C372.2,116.1,372,116.3,371.7,116.3z M371.7,111.3c-0.3,0-0.5-0.2-0.5-0.5v-2c0-0.3,0.2-0.5,0.5-0.5s0.5,0.2,0.5,0.5v2
			C372.2,111.1,372,111.3,371.7,111.3z M371.7,106.3C371.7,106.3,371.7,106.3,371.7,106.3c-0.3,0-0.5-0.2-0.5-0.5
			c0-0.7,0.1-1.4,0.2-2.1c0.1-0.3,0.3-0.4,0.6-0.4c0.3,0.1,0.5,0.3,0.4,0.6c-0.1,0.6-0.2,1.3-0.2,1.9
			C372.2,106.1,372,106.3,371.7,106.3z M372.8,101.5c-0.1,0-0.1,0-0.2,0c-0.3-0.1-0.4-0.4-0.3-0.7c0.3-0.6,0.6-1.3,0.9-1.9
			c0.1-0.2,0.4-0.3,0.7-0.2c0.2,0.1,0.3,0.4,0.2,0.7c-0.3,0.6-0.6,1.1-0.9,1.7C373.2,101.3,373,101.5,372.8,101.5z M375.4,97.2
			c-0.1,0-0.2,0-0.3-0.1c-0.2-0.2-0.2-0.5,0-0.7c0.5-0.5,1-1,1.5-1.4c0.2-0.2,0.5-0.2,0.7,0.1c0.2,0.2,0.2,0.5-0.1,0.7
			c-0.5,0.4-1,0.9-1.4,1.3C375.7,97.2,375.6,97.2,375.4,97.2z M379.3,94.2c-0.2,0-0.3-0.1-0.4-0.3c-0.1-0.2-0.1-0.5,0.2-0.7l1.7-1
			c0.2-0.1,0.5-0.1,0.7,0.2c0.1,0.2,0.1,0.5-0.2,0.7l-1.7,1C379.5,94.1,379.4,94.2,379.3,94.2z M383.7,91.7c-0.2,0-0.3-0.1-0.4-0.3
			c-0.1-0.2-0.1-0.5,0.2-0.7l1.7-1c0.2-0.1,0.5-0.1,0.7,0.2c0.1,0.2,0.1,0.5-0.2,0.7l-1.7,1C383.8,91.6,383.8,91.7,383.7,91.7z
			 M388,89.2c-0.2,0-0.3-0.1-0.4-0.3c-0.1-0.2-0.1-0.5,0.2-0.7l1.7-1c0.2-0.1,0.5-0.1,0.7,0.2c0.1,0.2,0.1,0.5-0.2,0.7l-1.7,1
			C388.2,89.1,388.1,89.2,388,89.2z M392.3,86.7c-0.2,0-0.3-0.1-0.4-0.3c-0.1-0.2-0.1-0.5,0.2-0.7l1.7-1c0.2-0.1,0.5-0.1,0.7,0.2
			c0.1,0.2,0.1,0.5-0.2,0.7l-1.7,1C392.5,86.6,392.4,86.7,392.3,86.7z M396.7,84.2c-0.2,0-0.3-0.1-0.4-0.3c-0.1-0.2-0.1-0.5,0.2-0.7
			l1.7-1c0.2-0.1,0.5-0.1,0.7,0.2c0.1,0.2,0.1,0.5-0.2,0.7l-1.7,1C396.8,84.1,396.7,84.2,396.7,84.2z"/>
	</g>
	<polygon class="st7" points="410.1,80.3 413.5,81.6 415.9,78.7 	"/>
	<polygon class="st7" points="311.2,301.7 314.8,303.1 317.4,300 	"/>
	<polygon class="st7" points="544.8,106.9 547.8,108 546.4,103.4 	"/>
</g>
</svg>
