<svg xmlns="http://www.w3.org/2000/svg" viewBox="0 0 243.7 39.04"><defs><style>.cls-1{fill:#ef8f04;}.cls-2{fill:#d84905;}</style></defs><g id="Layer_2" data-name="Layer 2"><g id="Layer_1-2" data-name="Layer 1"><path class="cls-1" d="M70.77,5.89H86.1L85,12.41H76.4l-.34,1.91h8l-1.15,6.5h-8l-1.36,7.67H66.78Z"/><path class="cls-1" d="M85,20a10.39,10.39,0,0,1,3.66-6.13,10,10,0,0,1,6.68-2.59,7.11,7.11,0,0,1,5.8,2.59A7.3,7.3,0,0,1,102.7,20,10.43,10.43,0,0,1,99,26.25a10.17,10.17,0,0,1-6.72,2.59,7.09,7.09,0,0,1-5.78-2.58A7.35,7.35,0,0,1,85,20Zm6.45,0a2.05,2.05,0,0,0,.37,1.71,1.87,1.87,0,0,0,1.53.67,2.76,2.76,0,0,0,1.83-.69,3,3,0,0,0,1-1.69,2,2,0,0,0-.4-1.68,1.93,1.93,0,0,0-1.53-.68A2.87,2.87,0,0,0,91.48,20Z"/><path class="cls-1" d="M103.9,20a10.35,10.35,0,0,1,3.66-6.13,10,10,0,0,1,6.68-2.59,7.06,7.06,0,0,1,5.8,2.52A7.26,7.26,0,0,1,121.57,20a10.28,10.28,0,0,1-3.66,6.22,10.12,10.12,0,0,1-6.72,2.59,7.06,7.06,0,0,1-5.76-2.57A7.39,7.39,0,0,1,103.9,20Zm6.44,0a2,2,0,0,0,.38,1.71,1.86,1.86,0,0,0,1.53.67,2.76,2.76,0,0,0,1.83-.69,3,3,0,0,0,1-1.69,2,2,0,0,0-.39-1.68,1.94,1.94,0,0,0-1.53-.68,2.75,2.75,0,0,0-1.81.68A2.88,2.88,0,0,0,110.34,20Z"/><path class="cls-1" d="M126.17,13.69A8.44,8.44,0,0,1,132,11.13a4.08,4.08,0,0,1,3.6,1.77l1.54-8.56h6.34L139.19,28.5h-5.72l-.13-1.76a6,6,0,0,1-4.44,2,5.74,5.74,0,0,1-5-2.58A8,8,0,0,1,122.77,20,11.22,11.22,0,0,1,126.17,13.69ZM129.24,20a2.12,2.12,0,0,0,.43,1.83,2,2,0,0,0,1.65.73,3,3,0,0,0,2-.73A3,3,0,0,0,134.37,20a2.17,2.17,0,0,0-.43-1.85,2,2,0,0,0-1.7-.75,2.82,2.82,0,0,0-2,.75A3.08,3.08,0,0,0,129.24,20Z"/><path d="M158.07,17.85H147L145.41,27h12.11L157,28.49H143.46l3.83-21.7h13.28l-.28,1.54h-11.6l-1.4,7.94h11.07Z"/><path d="M164.49,13c1.9,3.8,2.72,5.5,3.18,6.44h0c.93-1.06,2.86-3.28,5.65-6.44h1.77l-6.72,7.49,4.08,8h-1.82c-1.64-3.31-2.84-5.67-3.39-6.74h0c-.75.89-2.52,3.06-5.72,6.74H159.7l6.86-7.86L162.67,13Z"/><path d="M177.16,26.22l-1.54,8.47h-1.53l3.07-17.87c.23-1.27.47-2.64.64-3.8h1.53a20.73,20.73,0,0,1-.43,2.79,7,7,0,0,1,6-3.17c3.65,0,5.66,3.06,4.83,7.66-1,5.56-4.48,8.51-8.22,8.51C178.89,28.87,177.68,27.67,177.16,26.22Zm11-5.8c.63-3.6-.63-6.3-3.69-6.3-3.76,0-5.72,2.36-6.46,6.58s0,6.71,3.9,6.71C185.16,27.41,187.49,24.7,188.19,20.42Z"/><path d="M194.26,17.22c.46-2.59.63-3.71.71-4.2h1.53a32.34,32.34,0,0,1-.54,3.46,7.27,7.27,0,0,1,6.14-3.84l-.29,1.68a6.93,6.93,0,0,0-6.47,6.13l-1.43,8.05h-1.53Z"/><path d="M203.74,20.94c-.68,4,.9,6.47,3.88,6.47a5.38,5.38,0,0,0,5-2.91h1.53a7.33,7.33,0,0,1-6.86,4.37c-4.71,0-5.83-4.05-5.12-8,.76-4.43,3.65-8.24,8.17-8.24,4.77,0,5.56,4.12,5,7a4.86,4.86,0,0,1-.26,1.27Zm10-1.39c.51-3.07-.73-5.49-3.77-5.49s-5,2.27-6,5.49Z"/><path d="M218.73,24.22a3.34,3.34,0,0,0,3.43,3.26l.4,0c2.76,0,4.09-1.25,4.4-3.06s-.28-2.62-3.6-3.47c-3.82-1-4.6-2.16-4.23-4.21s2.33-4.13,5.82-4.13,4.8,2.15,4.6,4.34H228c0-1.3-.78-2.91-3.42-2.91s-3.71,1.33-3.92,2.57.36,2.15,3.29,2.89c4.19,1.05,5,2.48,4.6,4.79-.51,2.83-3.07,4.6-6.35,4.6-3.54,0-5.18-1.85-5.13-4.6Z"/><path d="M232.86,24.22a3.32,3.32,0,0,0,3.37,3.26,2.28,2.28,0,0,0,.45,0c2.76,0,4.11-1.25,4.41-3.06s-.29-2.62-3.6-3.47c-3.83-1-4.6-2.16-4.24-4.21s2.33-4.13,5.84-4.13,4.78,2.15,4.59,4.34h-1.53c0-1.3-.78-2.91-3.42-2.91s-3.69,1.33-3.92,2.57.37,2.15,3.31,2.89c4.17,1.05,5,2.48,4.6,4.79-.49,2.83-3.07,4.6-6.35,4.6-3.52,0-5.18-1.85-5.12-4.6Z"/><path class="cls-2" d="M31.24,1.8a2.94,2.94,0,0,1,.5-.71l0,0c1.11-.9,1.54-1.12,2.79-.52a3.25,3.25,0,0,1,1.31,1.34c.07.16.12.2.18.37a1.55,1.55,0,0,1,.06.23,2.8,2.8,0,0,1,.72.06A17,17,0,0,1,49.4,9c.21.29.4.6.63.91a17.36,17.36,0,0,1,2.54,8.55l-1.5.13a1.27,1.27,0,0,0-.34,0c-9,.77-17.73,2.18-26.53,3.17l-.88.1-.59.07L22.1,22s-.35-.16,0-.35.46-.33.42-.87v-.07c-.08-.47-.14-.95-.18-1.43l-11.85.92A1.47,1.47,0,0,1,8.9,18.89h0v-.13a1.45,1.45,0,0,1,.85-1.32h0a1.33,1.33,0,0,1,.52-.13l9.46-.75a1.51,1.51,0,0,0,.87-1.36v-.1a1.51,1.51,0,0,0-1.08-1.31h0a1.12,1.12,0,0,0-.51-.06L8,14.59H8a1.45,1.45,0,0,1-1.1-1.31v-.13a1.48,1.48,0,0,1,1.37-1.46l15.06-1.21.52-.05a1.64,1.64,0,0,0,1.48-1.64V8.66a1.58,1.58,0,0,0-.53-1.07,1.82,1.82,0,0,0-.59-.33L16,7.9a1.58,1.58,0,0,1-.57-.08,1.46,1.46,0,0,1-1-1.27V6.42A1.49,1.49,0,0,1,15.73,5L28.46,4a.28.28,0,0,0,.18-.06h0a.31.31,0,0,0,.11-.09h0a13.82,13.82,0,0,1,2.24-1,2.77,2.77,0,0,1,.2-.86"/><path class="cls-1" d="M52.57,18.48l-1.51.13a1.19,1.19,0,0,0-.33,0,.57.57,0,0,0,0-.26h0a16.38,16.38,0,0,0-2.42-8A15.44,15.44,0,0,0,36.78,2.81l-.92-.06a1.81,1.81,0,0,0-.09-.31A2.48,2.48,0,0,0,34.5.91a2.67,2.67,0,0,0-3.25.89,2.83,2.83,0,0,1,.47-.71L31.77,1A2.88,2.88,0,0,1,35.14.25,3,3,0,0,1,36.69,2,16.11,16.11,0,0,1,49.43,9c.21.29.41.6.64.92A17.46,17.46,0,0,1,52.57,18.48Z"/><path class="cls-1" d="M9.68,5.81l1.94-.15A1.34,1.34,0,0,1,13.06,6.9h0a1.34,1.34,0,0,1-1.23,1.44l-1.94.15A1.34,1.34,0,0,1,8.45,7.26h0A1.34,1.34,0,0,1,9.68,5.81Z"/><path class="cls-1" d="M2.82,12.74l1.4-.11a1.34,1.34,0,0,1,1.45,1.23h0a1.35,1.35,0,0,1-1.23,1.46L3,15.43a1.35,1.35,0,0,1-1.46-1.24h0A1.36,1.36,0,0,1,2.82,12.74Z"/><path class="cls-1" d="M1.24,18.45l4.37-.34a1.34,1.34,0,0,1,1.45,1.23h0a1.36,1.36,0,0,1-1.24,1.45l-4.37.34A1.35,1.35,0,0,1,0,19.89H0A1.34,1.34,0,0,1,1.24,18.45Z"/><path class="cls-1" d="M13.4,24l1.48-.12a1.35,1.35,0,0,1,1.45,1.24h0a1.35,1.35,0,0,1-1.24,1.45l-1.48.12a1.35,1.35,0,0,1-1.45-1.24h0A1.35,1.35,0,0,1,13.4,24Z"/><path class="cls-2" d="M43.65,28.94c-.1-5.31-5.89-5.28-8.17-5.08h-.06c-.55.06-.9.12-.9.12a.76.76,0,0,0-.65.68c-.53,4.7-3.75,5.83-5.33,6.11-.5.08-1.09.19-1.27.64a4,4,0,0,1-2.59,3c-3.25,1.63-7.1.06-7.55-1.27s0-3.42,3.17-5a5.54,5.54,0,0,1,6.08.18.73.73,0,0,0,.42.14c3.17.23,4.18-1.77,4.49-3.07a.78.78,0,0,0-.57-.93.82.82,0,0,0-.27,0L18.93,25.83h-.16a1.23,1.23,0,0,1-1.2-1.06,1.21,1.21,0,0,1,1.06-1.29L53,19.38h.16a1.2,1.2,0,0,1,.12,2.39L42.76,23a8.73,8.73,0,0,1,3.5,5.34h0s.06.1.35.14h.19a3.07,3.07,0,0,1,2.07,2.08l.08.31.13.43,1.56,5a.5.5,0,0,1-.33.63.51.51,0,0,1-.64-.33V36.5l-1.62-5.23v-.12A.24.24,0,0,0,48,31a1,1,0,0,0-.18-.17l-.22-.07h-.19a.45.45,0,0,0-.24.16h0a.49.49,0,0,0-.08.39l.07.27L48.52,36l.23.64.15.53a.4.4,0,0,1-.78.2.29.29,0,0,1,0-.09c-.57-1.87-1.14-3.73-1.72-5.6a.85.85,0,0,0-.24-.26l-.16,0a.37.37,0,0,0-.21,0,.44.44,0,0,0-.29.22.54.54,0,0,0,0,.41v.09l0,.08L46.64,36l.45,1.44.11.32a.39.39,0,0,1-.23.48h0a.39.39,0,0,1-.5-.21s0,0,0,0h0l-1.76-5.27,0-.17a.47.47,0,0,0-.39-.26.65.65,0,0,0-.19,0,.53.53,0,0,0-.36.58V33l0,.14,1.63,5.24v.06A.48.48,0,0,1,45,39a.54.54,0,0,1-.64-.34l-1.68-5.43a5.06,5.06,0,0,1-.18-1.45c.31-1.78.93-1.8,1.13-2.71Z"/></g></g></svg>