<svg xmlns="http://www.w3.org/2000/svg" xmlns:xlink="http://www.w3.org/1999/xlink" viewBox="0 0 1376.54 747.97"><defs><style>.cls-1,.cls-2,.cls-3{opacity:0.15;}.cls-1,.cls-10,.cls-2{isolation:isolate;}.cls-1{fill:url(#linear-gradient);}.cls-2{fill:url(#linear-gradient-2);}.cls-4{fill:#7cb8d0;}.cls-10,.cls-5{fill:#fff;}.cls-6{fill:#a0d9ea;}.cls-7{fill:#7ab2cd;}.cls-8{fill:#01a765;}.cls-9{fill:#33dd96;}.cls-10{opacity:0.68;}.cls-11{opacity:0.13;}.cls-12{fill:url(#linear-gradient-3);}.cls-13{fill:#82b378;}.cls-14{fill:#a8d29f;}.cls-15{fill:#233862;}.cls-16{fill:#b7d3f3;}.cls-17{fill:#d2e3fc;}.cls-18{fill:#c5dcf8;}.cls-19{fill:#d1e6fa;}.cls-20{fill:#ffb27d;}.cls-21{fill:#932722;}.cls-22{fill:#163560;}.cls-23{fill:#b5453c;}.cls-24{fill:#1c468a;}.cls-25{fill:#ed975d;}.cls-26{fill:#f99746;}.cls-27{fill:#96302a;}.cls-28{fill:#97badd;}.cls-29{fill:#fcecdb;}.cls-30{fill:#6bb2a4;}.cls-31{fill:#73cab9;}.cls-32,.cls-36{fill:#fffbf8;}.cls-32{opacity:0.85;}.cls-33{fill:#95c0f4;}.cls-34{fill:#8cbaf1;}.cls-35{fill:#c0d8fb;}.cls-37{fill:#699dee;}.cls-38{fill:#ffb176;}.cls-39{fill:#b25918;}.cls-40{fill:#ed7d2b;}.cls-41{fill:#2a4e96;}.cls-42{fill:#ed985f;}.cls-43{fill:#2c3a64;}.cls-44{fill:#ffe4cc;}.cls-45{fill:#f77548;}.cls-46{fill:#efcbab;}.cls-47{fill:#ff7d5a;}.cls-48{fill:#2e3552;}</style><linearGradient id="linear-gradient" x1="1307.57" y1="516.7" x2="1376.1" y2="376.2" gradientTransform="matrix(1, 0, 0, -1, 0, 479.86)" gradientUnits="userSpaceOnUse"><stop offset="0" stop-color="#a27bfc"/><stop offset="1" stop-color="#6775ff"/></linearGradient><linearGradient id="linear-gradient-2" x1="73.6" y1="100.2" x2="142.13" y2="-40.3" xlink:href="#linear-gradient"/><linearGradient id="linear-gradient-3" x1="794.15" y1="310.39" x2="1331.53" y2="763.48" gradientTransform="matrix(1.21, -0.07, 0.05, 0.91, -177.43, -6.27)" xlink:href="#linear-gradient"/></defs><g id="Layer_2" data-name="Layer 2"><g id="Layer_1-2" data-name="Layer 1"><path class="cls-1" d="M1308.61,11.69c-2.26,13.65,6.33,47.8,23.77,51.42,11.08,2.56,31.85-1.61,40.1-11.8,17.3-17.18-24.65-53.53-50.57-51.2-6.83.56-12.11,4.36-13.3,11.59Z"/><path class="cls-2" d="M74.64,428.19C72.38,441.83,81,476,98.41,479.61c11.08,2.56,31.85-1.61,40.1-11.81,17.3-17.17-24.65-53.52-50.57-51.21-6.83.56-12.11,4.36-13.3,11.6Z"/><g class="cls-3"><path class="cls-4" d="M1159.13,405.21V546.74H23.45V397.2H54.57v67.17l69.9-.71V285h38.09V106.42h36V30.28h65.05v72h45.69V269.84l1.79.58,21.43,6.89,10.72,3.49,29.16,9.43,7.23,2.33,1.45.46,3.62,1.16L489.34,328V82.91H560V181.2H694.25V103.68H799.47v198H936.55V141.06h51.26V49.67h114.9V490h41.54V405.2Z"/><path class="cls-5" d="M32.53,397.2H44.87V546.74H32.53ZM169,114.6h12.33V546.73H169Zm16.74,0H198V546.73H185.7Zm23-76.19h12.34v508.3H208.71Zm16.74,0h12.34v508.3H225.45Zm16.78,0h12.3v508.3h-12.3ZM267.4,114.6h12.34V546.73H267.4Zm16.78,0h12.35V546.73H284.19ZM500.73,90.71H513v456H500.73Zm18.69,0h12.3v456H519.43Zm18.69,0h12.3v456h-12.3ZM563,189.91h12.3V546.73H563Zm18.7,0H594V546.73H581.73ZM701.15,111h12.3V546.73h-12.3Zm19.2,0h12.34V546.73H720.35Zm19.24,0h12.29V546.73H739.59Zm19.2,0h12.33V546.73H758.79ZM778,111h12.3V546.73H778Zm166.16,36.68h12.29V546.73H944.18Zm24.21,0h12.34V546.73H968.39Z"/><path id="E" class="cls-5" d="M997.62,58.36H1010V546.74H997.62Z"/><path class="cls-5" d="M1018.39,58.36h12.33V546.74h-12.33Z"/><path id="E-2" data-name="E" class="cls-5" d="M1039.16,58.36h12.33V546.74h-12.33Z"/><path id="E-3" data-name="E" class="cls-5" d="M1059.93,58.36h12.33V546.74h-12.33Z"/><path id="E-4" data-name="E" class="cls-5" d="M1080.7,58.36H1093V546.74H1080.7Z"/><path class="cls-6" d="M1195.52,405.21V546.74H23.45V397.2H91v67.17l69.9-.71V244.21l1.71.46,6.39,1.78L185.69,251l13.25,3.66,9.76,2.65,9,2.49,3.36.92,1,.29,3.36.91,9,2.49,7.8,2.12,2.87.79,9.43,2.62,2.91.79,4.4,1.2,5.56,1.54,6.77,1.82,4.44,1.25,1.12.3,4.45,1.25,6.73,1.83,5.6,1.53,7.27,2,7.32,2,9.46,2.57,1.62.46V520.44l20.07-.7V310h27l-.33-32.65-.37-33.1h27v20.06l36.34-.25V210.27h85.56V265h30.45V227.92h34.6v82H620.9V198.85h11.43V177h8.85v-36h13V112.65H706.6v29.62H725v37.88l5.61,0,2,.05,4.86,0h.62v17.9h1.42l10.51,0-.42,110.45h.17l2,0,4.86-.08,1.95,0V226.55H771.1l4.86,0h23.51l8,0h28.37l52.22-.08V162.25h90.85v327h19.64V212.35h63.68V441.52h16.62v-99.7l1.82,1.25,7.19,4.94,5.15,3.57,3.28,2.24,6.4,4.41,5.93,4.11,21.48,14.79V472a66.43,66.43,0,0,0,9,1.24c2.32,0,4.15-.2,4.15-1.24V405.2Z"/><path id="F" class="cls-5" d="M33.57,421.48H45.9v16.23H33.57Z"/><path id="G" class="cls-5" d="M121.55,482.21h12.33v16.23H121.55Z"/><path id="G-2" data-name="G" class="cls-5" d="M173.57,282.83h12.34v16.23H173.57Z"/><path id="G-3" data-name="G" class="cls-5" d="M194.76,282.83h12.33v16.23H194.76Z"/><path id="H" class="cls-5" d="M215.94,282.83h12.33v16.23H215.94Z"/><path class="cls-5" d="M237.13,282.83h12.33v16.23H237.13Z"/><path id="G-4" data-name="G" class="cls-5" d="M194.76,350.33h12.33v16.23H194.76Z"/><path id="H-2" data-name="H" class="cls-5" d="M215.94,350.33h12.33v16.23H215.94Z"/><path class="cls-5" d="M237.13,350.33h12.33v16.23H237.13Zm-25.62,67.5h12.33v16.23H211.51Z"/><path id="G-5" data-name="G" class="cls-5" d="M232.69,417.83H245v16.23H232.69Z"/><path id="G-6" data-name="G" class="cls-5" d="M287.73,417.83h12.34v16.23H287.73Z"/><path id="F-2" data-name="F" class="cls-5" d="M210.07,440.67H222.4V456.9H210.07Z"/><path class="cls-5" d="M231.25,440.68h12.33v16.23H231.25Zm48.08-95h12.33v16.23H279.33Z"/><path id="G-7" data-name="G" class="cls-5" d="M173.57,393.25h12.34v16.23H173.57Z"/><path id="F-3" data-name="F" class="cls-5" d="M301.55,345.65h12.33v16.23H301.55Z"/><path class="cls-5" d="M447.56,226.57h12.33v28.54H447.56Zm19.38,0h12.33v28.54H466.94Zm19.39,0h12.33v28.54H486.33Z"/><path id="G-8" data-name="G" class="cls-5" d="M194.76,314.32h12.33v16.23H194.76Z"/><path id="H-3" data-name="H" class="cls-5" d="M215.94,314.32h12.33v16.23H215.94Z"/><path class="cls-5" d="M237.13,314.32h12.33v16.23H237.13Zm144-26.3h12.33v16.22H381.1Z"/><path id="F-4" data-name="F" class="cls-5" d="M408.79,288h12.34v16.22H408.79Z"/><path id="F-5" data-name="F" class="cls-5" d="M436.49,288h12.33v16.22H436.49Z"/><path id="F-6" data-name="F" class="cls-5" d="M354.79,334.1h12.33v16.23H354.79Z"/><path class="cls-5" d="M370.78,334.1h12.33v16.23H370.78Z"/><path id="F-7" data-name="F" class="cls-5" d="M386.77,334.1H399.1v16.23H386.77Z"/><path id="F-8" data-name="F" class="cls-5" d="M402.75,334.1h12.34v16.23H402.75Z"/><path class="cls-5" d="M418.73,334.1h12.33v16.23H418.73Z"/><path id="F-9" data-name="F" class="cls-5" d="M434.73,334.1h12.33v16.23H434.73Z"/><path class="cls-5" d="M552.8,334.1h12.33v16.23H552.8ZM657.4,210.34h12.33v16.23H657.4Zm18.22,0H688v16.23H675.62Zm-43,30.5H645v16.23H632.65Z"/><path id="F-10" data-name="F" class="cls-5" d="M651.23,240.84h12.34v16.23H651.23Z"/><path id="F-11" data-name="F" class="cls-5" d="M669.82,240.84h12.33v16.23H669.82Z"/><path class="cls-5" d="M688.4,240.84h12.33v16.23H688.4Z"/><path id="F-12" data-name="F" class="cls-5" d="M707,240.84h12.33v16.23H707Z"/><path id="F-13" data-name="F" class="cls-5" d="M659.59,276.84h12.33v16.23H659.59Z"/><path class="cls-5" d="M674,276.84h12.34v16.23H674Zm-45,53.71h12.33v16.23H629Zm16.12,0H657.4v16.23H645.07Zm59.58,0H717v16.23H704.65Zm16,0H733v16.23H720.68Zm52.62-95.34h12.33v16.22H773.3Z"/><path id="F-14" data-name="F" class="cls-5" d="M840.63,235.21H853v16.22H840.63Z"/><path id="F-15" data-name="F" class="cls-5" d="M840.63,266.6H853v16.23H840.63Z"/><path id="G-9" data-name="G" class="cls-5" d="M840.63,298H853v16.23H840.63Z"/><path class="cls-5" d="M819.86,296.13h12.33v16.23H819.86Zm-30.29,0H801.9v16.23H789.57Z"/><path id="F-16" data-name="F" class="cls-5" d="M860.36,235.21h12.33v16.22H860.36Z"/><path id="F-17" data-name="F" class="cls-5" d="M860.36,266.6h12.33v16.23H860.36Z"/><path class="cls-5" d="M929.23,177.25h12.33v16.22H929.23Zm27.12,0h12.33v16.22H956.35ZM929.23,199.4h12.33v16.22H929.23Zm27.12,0h12.33v16.22H956.35Zm49.85,23.88h12.33v16.23H1006.2Z"/><path id="G-10" data-name="G" class="cls-5" d="M1022.81,223.28h12.33v16.23h-12.33Z"/><path id="G-11" data-name="G" class="cls-5" d="M1007.6,249h12.33v16.23H1007.6Z"/><path id="F-18" data-name="F" class="cls-5" d="M1043.66,285H1056v16.23h-12.33Z"/><path class="cls-5" d="M1043.66,312.36H1056v16.22h-12.33Z"/><path id="G-12" data-name="G" class="cls-5" d="M1043.66,339.7H1056v16.23h-12.33Z"/><path class="cls-5" d="M1043.66,367.05H1056v16.23h-12.33Z"/><path id="F-19" data-name="F" class="cls-5" d="M1087.27,366.55h12.33v16.23h-12.33Z"/><path id="G-13" data-name="G" class="cls-5" d="M1110.12,419h12.33v16.23h-12.33Z"/><path class="cls-5" d="M1175.15,407.36h12.33v16.22h-12.33Zm-22.19,0h12.33v16.22H1153Zm-223.73-164h12.33v16.23H929.23Z"/><path id="F-20" data-name="F" class="cls-5" d="M894.8,240.84h12.33v16.23H894.8Z"/><path id="F-21" data-name="F" class="cls-5" d="M956.35,243.32h12.33v16.23H956.35Z"/><path id="I" class="cls-5" d="M929.23,287.24h12.33v16.23H929.23Z"/><path id="G-14" data-name="G" class="cls-5" d="M956.35,287.24h12.33v16.23H956.35Z"/><path id="I-2" data-name="I" class="cls-5" d="M929.23,331.16h12.33v16.23H929.23Z"/><path id="G-15" data-name="G" class="cls-5" d="M956.35,331.16h12.33v16.23H956.35Z"/><path id="I-3" data-name="I" class="cls-5" d="M929.23,375.08h12.33v16.23H929.23Z"/><path id="G-16" data-name="G" class="cls-5" d="M956.35,375.08h12.33v16.23H956.35Z"/><path id="I-4" data-name="I" class="cls-5" d="M929.23,419h12.33v16.23H929.23Z"/><path id="G-17" data-name="G" class="cls-5" d="M956.35,419h12.33v16.23H956.35Z"/><path id="G-18" data-name="G" class="cls-5" d="M860.36,298h12.33v16.23H860.36Z"/><path id="G-19" data-name="G" class="cls-5" d="M840.63,360.78H853V377H840.63Z"/><path class="cls-5" d="M773.3,366.55h12.33v16.23H773.3Zm0,30.59h12.33v16.23H773.3Zm0,30.6h12.33V444H773.3Z"/><path id="H-4" data-name="H" class="cls-5" d="M773.3,458.32h12.33v16.23H773.3Z"/><path class="cls-5" d="M660.46,150.94h39.31v16.22H660.46Z"/><path id="F-22" data-name="F" class="cls-5" d="M361,409.71h12.33v16.23H361Z"/><path id="H-5" data-name="H" class="cls-5" d="M377,411.25h12.33v16.23H377Z"/><path class="cls-5" d="M513.23,413.37h12.33V429.6H513.23Zm22.19,0h12.33V429.6H535.42ZM68.93,441.6H81.26v16.23H68.93Z"/><path class="cls-7" d="M23.45,397.2H91v1.2H23.45Z"/><path class="cls-8" d="M1219,581.15l-.18,4.51H1.35c-3.65-17.4.12-36.71,10.93-50.26C32.08,510.56,60,482.7,74,482.7c18.36,0,17.9,37.49,53.69,37.49,26.42,0,62.69-35.56,78.36-35.56,18,0,50.34,33,81.2,33,76.36,0,54.42-106.43,130.23-106.43,96.46,0,118,120.77,203.4,120.77,81.18,0,95-107.52,173.85-107.52,47,0,72.7,39.44,103.57,68.4,12,11.26,24.78,20.93,39.88,26.08a74.14,74.14,0,0,0,24.19,4,94.11,94.11,0,0,0,22.73-2.87c12.27-3,23.9-8.18,35.31-13.91,27.19-13.67,53.19-30.7,84-30.7C1154,475.45,1219,513,1219,581.15Z"/><path class="cls-9" d="M565.25,567.3c0,6-4,12.46-10.31,18.35H136.29a52.62,52.62,0,0,1-17-22.14c-1.17-2.92-4.8-6-4.8-11.15,0-4.3,3.62-5.86,8.65-5.86,18.7,0,34.9,12.68,36.13,12.68,10.64,0,16.89-11.73,20.53-23.39a12.77,12.77,0,0,1,23.08-2.8c7.18,11.77,10.25,22.34,17,22.34,15.8,0,31.32-36.09,35.6-36.09,24.52,0,23.08,45.56,47,45.56,27,0,35.71-42.45,47.67-61,3.9-.37,6.55-3.82,11.36-3.82,43.26,0,27.3,43.51,53.55,43.51,19.83,0,36.86-29.8,56.13-29.8,42.77,0,37.27,48.53,62.57,48.53,8.68,0,15-6.17,24.17-8.28,5.15,4.31,7.3,8.86,7.3,13.4Zm541.28-8.11c0,8.95-8.83,18.85-21,26.47H690.75c-13.25-6.46-24.46-16-30.18-30.25-1.18-2.92-4.81-6-4.81-11.16,0-4.31,3.62-5.86,8.65-5.86,18.7,0,34.9,12.68,36.13,12.68,10.64,0,16.9-11.72,20.53-23.38a12.77,12.77,0,0,1,23.09-2.8c7.17,11.76,10.24,22.34,17,22.34,15.8,0,31.32-36.09,35.6-36.09,24.53,0,23.1,45.55,47,45.55,27,0,35.72-42.45,47.68-61,2.49-.23,4.47-1.73,6.84-2.79a10.73,10.73,0,0,1,4.51-1c25.22,0,30.32,14.79,35.38,27.12,3.62,8.83,7.23,16.4,18.18,16.4,10.08,0,19.44-7.71,28.74-15.28,9-7.32,17.92-14.53,27.39-14.53a47.72,47.72,0,0,1,7.91.62c34.27,5.62,31,47.91,54.66,47.91,8.68,0,15-6.17,24.17-8.28,5.14,4.3,7.3,8.85,7.3,13.4Z"/></g><path class="cls-10" d="M1029.81,720c111-30.1,336.77-145.52,336.55-361.55C1366.17,178.22,1172.71,1.1,966.13,38.54c-321.46,58.25-494.73,454-406.72,606.53,31.6,54.76,191.6,150.55,470.4,75Z"/><g class="cls-11"><path id="J" class="cls-12" d="M674.54,525.4c-33.73-9.22-142.64-39-164.21-105.58C461.16,268.09,842.15,16.39,1154.15,53.14c155.82,18.35,246.08,138.29,191.93,249-84.29,172.31-431.94,288.82-671.54,223.3Z"/></g><path class="cls-5" d="M587.06,232.58c6.8-1.12,7.37-4,11.89-5.41s10.32,1,13.06.11,2.18-8.45,9.14-13.19c5.38-3.67,14-.61,17.72,4.18,2.55,3.24,1.3,2.16,4.55,4.9,2.65,2.23,4.68-1.78,8.1,1.11,2.19,1.84,3.2,4.52,4.52,4.93,2.18.68,3.36-1.31,6.4-.26a3.68,3.68,0,0,1-1.44,7.14H564.8s10.92-1.64,22.26-3.51Zm514-74.72c6.81-1.13,7.37-4,11.89-5.41s10.32,1,13.06.11,2.18-8.46,9.14-13.19c5.38-3.67,13.95-.62,17.72,4.18,2.56,3.24,1.3,2.16,4.55,4.89,2.65,2.23,4.68-1.78,8.1,1.12,2.19,1.84,3.2,4.52,4.51,4.93,2.19.68,3.36-1.31,6.4-.26a3.67,3.67,0,0,1-1.44,7.13H1078.8s10.92-1.63,22.26-3.5ZM840.58,121.27c1.75-.62,2.12-1.82,3.43-2.13s1.89.28,2.82,0c.43-.15.36-2,2.11-2.39,2.82-.55,3.07.9,5.69-.46,1.81-1,3.65-4.39,10.35-4.39s7.15,4.88,9.17,5.27c1.1.21,4-1.44,6.8,0,2.06,1.07,2.42,5.56-2.37,5.56H833.22a55.05,55.05,0,0,0,7.36-1.45Z"/><path class="cls-13" d="M964.82,404.56s-14.74-17.2-.9-28.13c0,0,10.1-6.11,18.34-5.62,0,0-11.68,19.58-7.9,21.53s11.44-22.75,11.44-22.75,23-2.23,30.39,1.32c0,0-19.66,16.09-15.52,17s25.38-14.84,25.38-14.84,21.4,3.65,20.26,16.7-8.52,17.09-11.76,16.74-22.2-7.58-22.61-4.93,11,11.34,19,11.75c0,0-15.09,16.64-25.12,11.83s-10.88-12.41-17.13-15.27-11.59-2.85-9,.07,13.89,5.74,17.47,12.06,6.78,10.59-3.59,9-27.25-9.15-28-17.85Z"/><path class="cls-13" d="M1035.79,390.18s-58.13-2.24-71,14.38a42,42,0,0,1-11.57,16.25l-1.36,3.71S962,413.9,965.56,413.25C965.56,413.25,959.93,392.66,1035.79,390.18Z"/><path class="cls-13" d="M953.25,420.81s-12.48,9.22-13.34,25.71l2.26.2s4-17.05,11.19-23.71S953.25,420.81,953.25,420.81Z"/><path class="cls-14" d="M812.93,264.06s22.55-12.63,12-29.77c0,0-8.41-10.52-17.44-13.23,0,0,4.82,25.56,0,26.16s-3.3-28.86-3.3-28.86-23.76-11.43-33.08-10.53c0,0,14.73,25,9.92,24.36s-21.35-25.86-21.35-25.86-24.35-4.51-28.26,9.92,2.41,21.65,6,22.55,26.77.6,26.16,3.61-16.23,7.82-25,5.11c0,0,9.62,23.76,22.25,22.55s16.54-9,24.35-9.62,13.53,1.51,9.63,3.61-17.14.69-23.46,6.06-11.42,8.67.3,11.08,32.78.9,37-8.12Z"/><path class="cls-13" d="M742.57,220.76s63.14,20.45,70.36,43.3c0,0-.3,10.22,6,21.95v4.51s-6.61-15.33-10.22-17.44C808.72,273.08,822.85,253.24,742.57,220.76Z"/><path class="cls-13" d="M818.94,286s9.74,14.79,4.19,32.79l-2.51-.67s2.43-19.83-2.66-29.8S818.94,286,818.94,286Z"/><path class="cls-14" d="M950.59,364.82S919.67,347.5,934.1,324c0,0,11.54-14.43,23.91-18.14,0,0-6.6,35,0,35.86s4.53-39.57,4.53-39.57,32.57-15.66,45.34-14.42c0,0-20.19,34.21-13.6,33.38s29.27-35.44,29.27-35.44,33.38-6.19,38.74,13.6-3.29,29.68-8.24,30.91-36.69.83-35.86,4.95,22.26,10.72,34.21,7c0,0-13.19,32.56-30.5,30.91s-22.67-12.37-33.39-13.19-18.55,2.06-13.19,4.95,23.5.94,32.15,8.3,15.66,11.89-.41,15.19-44.93,1.24-50.7-11.13Z"/><path class="cls-13" d="M1047,305.46s-86.56,28-96.45,59.36c0,0,.41,14-8.25,30.09v6.18s9.07-21,14-23.91C956.36,377.18,937,350,1047,305.46Z"/><path class="cls-13" d="M942.34,394.91s-13.34,20.27-5.73,44.94l3.43-.92s-3.33-27.18,3.65-40.85S942.34,394.91,942.34,394.91Z"/><path class="cls-15" d="M659.93,279.94s-5.39,4.48.54,10.17c0,0-5.09,1.77-6.74.57a4.59,4.59,0,0,0,.65.88s-5.21.47-7.46-1-2.32-28.31,12.34-26.12c0,0,12.24-1.6,11.87,12.69s4.27,14,4.27,14a6.45,6.45,0,0,1-1.87.74s-.93-.29-1.14-.79a3.19,3.19,0,0,0,.47,1s-5,.75-7.59-1S659.37,282.92,659.93,279.94Z"/><path class="cls-15" d="M659.14,287.24s-4.18-4-5.92-7.85c-1.24-2.77-7.21-13.95,3.95-15.11,0,0,8-.37,11.4.88,2.74,1,7,3.56,5.54,13.86l-.19,3.4Z"/><path class="cls-16" d="M646.4,366.72a238.34,238.34,0,0,0-2.74-29.1c-2-11.36-3.73-17.9-3.75-18-.26-1-4-5-12.31-4.91s-7.53,5.42-7.53,5.42h0a1.58,1.58,0,0,0,.06.47,254.69,254.69,0,0,1,7.38,63.67c0,.5-.06,1.37,0,1.94,0,0,19.26.5,19.26,0C647.43,383.12,647.1,374.47,646.4,366.72Z"/><path class="cls-17" d="M648.82,384.12c0,.5-.27.9-.59.9h0c-.33,0-.58-.41-.58-.9H631.14c0,.5-.27.9-.59.9h0c-.33,0-.58-.42-.58-.92a249.06,249.06,0,0,0-1.37-28.21,220.41,220.41,0,0,0-6.31-35.25,1.7,1.7,0,0,1-.06-.48s-.79-5.3,7.52-5.42,12.06,3.92,12.32,4.91c0,.06,1,3.76,2.34,10.41q.68,3.31,1.41,7.56a238.35,238.35,0,0,1,2.74,29.09C649.25,374.47,649.49,381,648.82,384.12Z"/><path class="cls-18" d="M628.74,385h64.72s-1.5-6.1-39-5.19C628,380.47,628.74,385,628.74,385Z"/><path class="cls-19" d="M623.47,448.73c7.51-38,5.58-61.3,5.57-61.6,0-.58,1.06-1.11,1.64-1.13s3.17-.18,3.47.32c.4.66,1.91,29.38-9.28,62.41Z"/><path class="cls-19" d="M683.9,448.73c-7.5-38-5.57-61.3-5.56-61.6,0-.58-1.06-1.11-1.64-1.13s-3.18-.18-3.48.32c-.39.66-1.9,29.38,9.28,62.41Z"/><path class="cls-19" d="M695.88,448.73c-7.51-38-5.58-61.3-5.57-61.6,0-.58-1.06-1.11-1.64-1.13s-3.17-.18-3.47.32c-.4.66-1.91,29.38,9.28,62.41Z"/><path class="cls-19" d="M635.53,448.73c7.5-38,5.57-61.3,5.56-61.6,0-.58,1.06-1.11,1.64-1.13s3.18-.18,3.48.32c.39.66,1.9,29.38-9.28,62.41Z"/><rect class="cls-16" x="627.45" y="383.44" width="67.37" height="3.52" rx="1.12"/><path class="cls-20" d="M727.75,450.37c-2.36,0-7.24.62-9.38-2s-6.77-3.89-7.36-4.72c-.32-.45.1-2.45.56-4.2h0c1.16-1.59-.7-3.75-.7-3.75l6.19.41s3,3.92,5.13,7.08a13,13,0,0,0,4.81,3.52c1.94.69,3.87,1.12,4.58,1.81C732.83,449.76,730.12,450.38,727.75,450.37Z"/><path class="cls-21" d="M727.75,450.37c-2.36,0-7.24.62-9.38-2s-6.77-3.89-7.36-4.72c-.32-.45-.33-2.27.56-4.2h0a15.84,15.84,0,0,1,6.11,4.66c2.2,3.06,8.07,4.39,9.31,2.62v0c1.94.69,3.87,1.12,4.58,1.81C732.83,449.76,730.12,450.38,727.75,450.37Z"/><polygon class="cls-21" points="711.01 443.66 713.39 448.73 714.97 448.9 714.73 444.39 711.01 443.66"/><path class="cls-22" d="M664.6,353.81s34.47,10.67,41.89,16.84S719.08,438,719.08,438a5.33,5.33,0,0,1-2.7.5,21.88,21.88,0,0,1-5.22-1.5S696,407.93,695.57,401.05s.68-12.81-2.29-13.36-40.86-.76-45.2-11.43,1.62-19.89,1.62-19.89Z"/><path class="cls-20" d="M719.76,450.37c-2.37,0-7.24.62-9.38-2s-6.78-3.89-7.37-4.72c-.32-.45.11-2.45.57-4.2h0c1.15-1.59-.71-3.75-.71-3.75l6.2.41s2.95,3.92,5.12,7.08a13,13,0,0,0,4.82,3.52c1.93.69,3.86,1.12,4.57,1.81C724.84,449.76,722.12,450.38,719.76,450.37Z"/><path class="cls-23" d="M719.76,450.37c-2.37,0-7.24.62-9.38-2s-6.78-3.89-7.37-4.72c-.32-.45-.33-2.27.57-4.2h0a15.84,15.84,0,0,1,6.1,4.66c2.21,3.06,8.07,4.39,9.31,2.62l0,0c1.93.69,3.86,1.12,4.57,1.81C724.84,449.76,722.12,450.38,719.76,450.37Z"/><polygon class="cls-23" points="703.01 443.66 705.39 448.73 706.97 448.9 706.74 444.39 703.01 443.66"/><path class="cls-24" d="M655.57,357s35.51,7.44,42.93,13.61S711.08,438,711.08,438a5.28,5.28,0,0,1-2.7.5,22,22,0,0,1-5.22-1.5S688,407.93,687.58,401.05s.67-12.81-2.3-13.36-40.86-.76-45.2-11.43,1.62-19.89,1.62-19.89Z"/><path class="cls-20" d="M668.91,299.76c.05,0-4.13,2.19-7.27,1.33-3-.81-4.89-4.64-4.85-4.65,1.26-.25,1.62-2,1.59-9.36l.57.12,9.51,1.88s-.22,3-.22,5.81C668.23,297.26,668.37,299.51,668.91,299.76Z"/><path class="cls-25" d="M668.46,289.08s-.22,3-.22,5.81c-5.33-.15-8.14-5-9.29-7.69Z"/><path class="cls-20" d="M670.24,291.75s-12.6.21-12.61-7.64S656,271,664,270.55s9.61,2.52,10.25,5.14S673.51,291.49,670.24,291.75Z"/><path class="cls-26" d="M640.87,333.64c-1.24-5.21,3-15.31,7.39-23.68,4-7.59,8.16-13.74,8.53-13.52,10.56,6.27,11.51,1.06,11.51,1.06h0s9.59,1.27,12.31,5.95c3.36,5.79,7,22,10.62,25.06-.56,1.7-.32,2.61.27,4.71a12.18,12.18,0,0,0,.42,1.29,24,24,0,0,0,1.81,3.72c-1.84,1.12-5.38,3.24-8,1.72-4-2.34-7.09-9.44-8.84-12.26l0,0c-3.8,21.52,1.37,26.42-1.25,28.69s-6.71-1.14-15.4,2.63c-5.7,2.47-13.61,6-18.93,6.67-2.79.32-4.87-.16-5.55-2C633.76,358.12,643.24,343.57,640.87,333.64Z"/><path class="cls-5" d="M667.44,287s.23,1,2.71.85c0,0,2.08-.13,2-1.23A6.69,6.69,0,0,0,667.44,287Z"/><path class="cls-26" d="M633.94,341.29a23.32,23.32,0,0,1,7.69-7.11c-.44-1.15,11.88-16.25,11.88-18.59s3.28-19.15,3.28-19.15-10.26.64-13.81,5.59C638.53,308.23,629.3,332.08,633.94,341.29Z"/><path class="cls-20" d="M641.63,334.18l20.52,5.35L660.22,343s-25-.18-26.28-1.7S641.63,334.18,641.63,334.18Z"/><path class="cls-22" d="M676.89,327.69c1.75,2.82,4.86,9.92,8.84,12.26,2.62,1.52,6.16-.6,8-1.72a24,24,0,0,1-1.81-3.72c-1.47.33-3.26.76-4.41,1.11C685.26,336.3,676.89,327.69,676.89,327.69Z"/><polygon class="cls-23" points="674.8 324.87 663.82 349.23 689.85 351.68 700.09 326.95 674.8 324.87"/><path class="cls-27" d="M700.09,327l12.14-7.7L700.09,345.8l-10.24,5.88C690.39,350.36,700.09,327,700.09,327Z"/><path class="cls-20" d="M662.15,339.53A31.11,31.11,0,0,0,666.9,337c.62-.56.57.23.51.45a3,3,0,0,1-1.38,2C664.44,340.53,662.15,339.53,662.15,339.53Z"/><path class="cls-15" d="M669,267.73s-4,11.27-9.79,13.09-7.64-.48-7.64-.48a16.64,16.64,0,0,0,4.89-10.09S665.81,263,669,267.73Z"/><path class="cls-15" d="M668.06,268.61s3,2.11,3.78,4.29,1.38,6.7,2.7,6.47c0,0,2.49-7.07-.95-10.81C669.94,264.59,668.06,268.61,668.06,268.61Z"/><path class="cls-15" d="M668.6,268.92s-2.13,10.81-9.33,14.63c0,0,7-6.95,7.27-14S668.6,268.92,668.6,268.92Z"/><path class="cls-15" d="M646.92,290.52c2.24,1.51,7.46,1,7.46,1a4.17,4.17,0,0,1-.65-.88c3.08,1.52,9.12-1.45,9.12-1.45-5.35,0-5.35-7.71-3.68-8.41a159.61,159.61,0,0,1,.46-16.45l-.37,0C644.6,262.21,644.67,289,646.92,290.52Z"/><path class="cls-20" d="M662.15,339.53s6.65-1.27,8.12-.95a21.63,21.63,0,0,1,5,2c.24.3-1,.47-1.82.12a7.66,7.66,0,0,0-2.94-.26,45.82,45.82,0,0,1,4.4,1.65.14.14,0,0,1,0,.23,2.36,2.36,0,0,1-1.59,0,27.87,27.87,0,0,0-3.16-.46l4,1.32a.1.1,0,0,1,.07.12c0,.19-.37.37-1.34.31a30.85,30.85,0,0,1-3.22-.67l2.12,1.41a2,2,0,0,1-1.69-.17,15,15,0,0,0-3.58-1.11c-.55.06-3.37.84-4.6.44l-1.75-.57Z"/><path class="cls-16" d="M654.55,448.73a1.2,1.2,0,0,0,1.19-1l5.83-33.07,8.4-47.57,2.34-13.3-6-.17-1,7.72L658,415.62l-4.32,32.17A.84.84,0,0,0,654.55,448.73Z"/><path class="cls-28" d="M665.3,361.36a8.59,8.59,0,0,1,4.67,5.75l2.34-13.3-6-.17Z"/><path class="cls-16" d="M803.24,448.73a1.21,1.21,0,0,1-1.19-1l-5.83-33.07-8.4-47.57-2.34-13.3,6-.17,1,7.72,7.28,54.26,4.32,32.17A.84.84,0,0,1,803.24,448.73Z"/><path class="cls-28" d="M792.49,361.36a8.59,8.59,0,0,0-4.67,5.75l-2.34-13.3,6-.17Z"/><rect class="cls-16" x="646.91" y="352.41" width="160.38" height="6.62" rx="2.11" transform="translate(1454.21 711.44) rotate(-180)"/><path class="cls-29" d="M970.68,365.79H941.45a1.48,1.48,0,0,1-1.48-1.47h0a1.48,1.48,0,0,1,1.48-1.47h29.23a1.47,1.47,0,0,1,1.47,1.47h0A1.47,1.47,0,0,1,970.68,365.79Z"/><path class="cls-29" d="M970.68,371.55H941.45a1.48,1.48,0,0,1-1.48-1.47h0a1.48,1.48,0,0,1,1.48-1.47h29.23a1.47,1.47,0,0,1,1.47,1.47h0A1.47,1.47,0,0,1,970.68,371.55Z"/><path class="cls-30" d="M976.83,123V439.52a9.06,9.06,0,0,1-8.79,9H809.53a9,9,0,0,1-9-9V123a9,9,0,0,1,9-9H967.81A9,9,0,0,1,976.83,123Z"/><path class="cls-31" d="M986.16,123V439.53a9.06,9.06,0,0,1-9,9H818.85a9,9,0,0,1-9-9V123a9,9,0,0,1,9-9H977.13A9.06,9.06,0,0,1,986.16,123Z"/><path class="cls-32" d="M923.83,126.64H878a1.79,1.79,0,0,1-1.78-1.79h0a1.78,1.78,0,0,1,1.78-1.78h45.84a1.78,1.78,0,0,1,1.78,1.78h0A1.79,1.79,0,0,1,923.83,126.64Z"/><path class="cls-32" d="M869.85,126.64h0a1.79,1.79,0,0,1-1.78-1.79h0a1.78,1.78,0,0,1,1.78-1.78h0a1.79,1.79,0,0,1,1.79,1.78h0A1.8,1.8,0,0,1,869.85,126.64Z"/><path class="cls-33" d="M911.68,430.06a11.51,11.51,0,1,1-11.51-11.5A11.48,11.48,0,0,1,911.68,430.06Z"/><rect class="cls-17" x="820.38" y="134.58" width="156.36" height="278.32"/><path class="cls-34" d="M908.34,438.16A11.5,11.5,0,1,1,894,420.35,25.79,25.79,0,0,0,908.34,438.16Z"/><path class="cls-35" d="M976.83,157.12V266.61H827.91a3.15,3.15,0,0,1-3-3.22v-103a3.15,3.15,0,0,1,3-3.23Z"/><path class="cls-35" d="M934.36,288.63v103a3,3,0,0,1-2.74,3.22H820.38V285.4H931.62A3,3,0,0,1,934.36,288.63Z"/><path class="cls-36" d="M1045.26,151.25v103a3.23,3.23,0,0,1-3.23,3.22H833.36a3.23,3.23,0,0,1-3.22-3.22v-103a3.23,3.23,0,0,1,3.22-3.23H1042A3.23,3.23,0,0,1,1045.26,151.25Z"/><path class="cls-37" d="M1045.26,151.24v103a3.53,3.53,0,0,1-3.75,3.23H937.7V148h103.81A3.53,3.53,0,0,1,1045.26,151.24Z"/><path class="cls-29" d="M999.24,162.27H960.18A1.17,1.17,0,0,1,959,161.1h0a1.17,1.17,0,0,1,1.17-1.17h39.06a1.18,1.18,0,0,1,1.17,1.17h0A1.18,1.18,0,0,1,999.24,162.27Z"/><path class="cls-29" d="M999.24,166.77H960.18a1.16,1.16,0,0,1-1.17-1.16h0a1.17,1.17,0,0,1,1.17-1.17h39.06a1.17,1.17,0,0,1,1.17,1.17h0A1.17,1.17,0,0,1,999.24,166.77Z"/><rect class="cls-29" x="950.72" y="159.68" width="3.76" height="2.84" rx="0.91"/><path class="cls-29" d="M999.24,178.86H960.18a1.17,1.17,0,0,1-1.17-1.17h0a1.17,1.17,0,0,1,1.17-1.17h39.06a1.18,1.18,0,0,1,1.17,1.17h0A1.18,1.18,0,0,1,999.24,178.86Z"/><path class="cls-29" d="M999.24,183.37H960.18A1.17,1.17,0,0,1,959,182.2h0a1.17,1.17,0,0,1,1.17-1.17h39.06a1.17,1.17,0,0,1,1.17,1.17h0A1.18,1.18,0,0,1,999.24,183.37Z"/><rect class="cls-29" x="950.72" y="176.27" width="3.76" height="2.84" rx="0.91"/><path class="cls-29" d="M999.24,195.26H960.18A1.16,1.16,0,0,1,959,194.1h0a1.17,1.17,0,0,1,1.17-1.17h39.06a1.17,1.17,0,0,1,1.17,1.17h0A1.17,1.17,0,0,1,999.24,195.26Z"/><path class="cls-29" d="M999.24,199.77H960.18A1.17,1.17,0,0,1,959,198.6h0a1.17,1.17,0,0,1,1.17-1.17h39.06a1.18,1.18,0,0,1,1.17,1.17h0A1.17,1.17,0,0,1,999.24,199.77Z"/><rect class="cls-29" x="950.72" y="192.67" width="3.76" height="2.84" rx="0.91"/><path class="cls-36" d="M942.22,277.79v103a3.23,3.23,0,0,1-3.22,3.22H730.33a3.23,3.23,0,0,1-3.22-3.22v-103a3.23,3.23,0,0,1,3.22-3.22H939A3.23,3.23,0,0,1,942.22,277.79Z"/><path class="cls-37" d="M942.22,277.79v103a3.23,3.23,0,0,1-3.22,3.23H846.19V274.57H939A3.23,3.23,0,0,1,942.22,277.79Z"/><path class="cls-26" d="M755.1,292.44A11.58,11.58,0,1,0,766.67,304,11.58,11.58,0,0,0,755.1,292.44Zm8,11.95h-8a.38.38,0,0,1-.37-.37V295.4a.38.38,0,0,1,.37-.37.37.37,0,0,1,.37.37v8.25h7.65a.37.37,0,0,1,.37.37A.38.38,0,0,1,763.12,304.39Z"/><path class="cls-26" d="M754,337.23a10.42,10.42,0,0,0-10.42,10.42c0,5.75,10.42,18.54,10.42,18.54s10.41-12.79,10.41-18.54A10.41,10.41,0,0,0,754,337.23Zm0,15.18a4.87,4.87,0,1,1,4.87-4.87A4.87,4.87,0,0,1,754,352.41Z"/><path class="cls-29" d="M812.44,343.64H774.53a1.76,1.76,0,0,1-1.75-1.75h0a1.76,1.76,0,0,1,1.75-1.75h37.91a1.75,1.75,0,0,1,1.74,1.75h0A1.75,1.75,0,0,1,812.44,343.64Z"/><rect class="cls-29" x="772.78" y="346.84" width="31.32" height="3.5" rx="1.12"/><path class="cls-29" d="M812.44,302.42H774.53a1.76,1.76,0,0,1-1.75-1.75h0a1.76,1.76,0,0,1,1.75-1.75h37.91a1.75,1.75,0,0,1,1.74,1.75h0A1.75,1.75,0,0,1,812.44,302.42Z"/><rect class="cls-29" x="772.78" y="305.61" width="31.32" height="3.5" rx="1.12"/><polygon class="cls-38" points="942.22 323.92 942.22 306.17 904.4 290.59 846.19 302.56 846.19 326.53 879.22 340.01 879.26 340.02 942.22 323.92 942.22 323.92"/><polygon class="cls-39" points="879.17 340.02 879.17 350.59 846.19 336.28 846.19 326.56 879.17 340.02"/><polygon class="cls-26" points="942.22 323.92 879.22 340.01 879.17 340.02 879.17 350.59 942.22 333.38 942.22 323.92 942.22 323.92"/><path class="cls-20" d="M1022.54,188.11c-.22-.13-.52-.3-.88-.49h0L1016,183s-.72.4,0,1.19l.36.38-2.16-1.69a.91.91,0,0,0-.13,1,24.1,24.1,0,0,0,3.34,3.1,12.26,12.26,0,0,1-3.09-2.5c-.9-.9-.61.46-.47,1.06.24,1.05,3,4.6,4,6.2s1.48,3.18.79,2.49-4.44-3-4.83-2.49,1.87,2.49,3,4.06,2.26,4.24,6.11,4.84,4.51-1.36,4.51-1.36S1024.31,189.2,1022.54,188.11Z"/><path class="cls-20" d="M1141.42,284.22s-.94,9.12-2,10.84-5.81,6.73-7.28,8.31c-.1.11-1-.73-.33-1.94,2.9-4.9,2.1-3.72,1.09-6.94-.49-1.59-.8,3-1.63,3.1s-.53-4.83-.56-6.33,4.13-2.21,4.62-7.62C1135.68,280.15,1141.42,284.22,1141.42,284.22Z"/><path class="cls-15" d="M1112.85,190.73s-7.58,37.19-49.28,49.34C1050.56,243.86,1021,201,1021,201s1-3.95,7.55-3c0,0,28.79,19.07,32.42,21.14,3.21,1.83,24.36-23.62,34-27.73A24.57,24.57,0,0,1,1112.85,190.73Z"/><path class="cls-15" d="M1162.63,424.51s5.17,4.72,4.16,8.08-5.68,5.59-6.31,9.69-3.15,6.33-5.42,6.33h-10.83s-1.67-2.88,2.37-3.75,5.56-5.69,5.3-10.16a79.27,79.27,0,0,1,.38-10.44l8.58-2Z"/><path class="cls-15" d="M1099.17,436.72s.92,10.74-1.35,11.86l-29.06-.06s0-3.35,4.67-4.1,12.87-3.48,14.26-9.56S1099.17,436.72,1099.17,436.72Z"/><path class="cls-26" d="M1074.63,285s1.53,18.83,3.33,41.47c2.45,30.75,5.4,68.52,5.69,75.68.5,12.42,2.52,32.3,2.52,32.3s4.79,4.72,14.39,2.73c0,0,8.54-28.37,11-58.39l.12-1.49c2.27-30.56,5.8-94.91,5.8-94.91Z"/><path class="cls-40" d="M1074.63,285s1.53,18.83,3.33,41.47l33.58,52.32.12-1.49c2.27-30.56,5.8-94.91,5.8-94.91Z"/><path class="cls-26" d="M1081.63,287.2s27.63,68.2,45.8,100.25,23.84,41,23.84,41,10.41-4.1,11.36-6.9c0,0-7-61.87-19.12-77-6.87-8.52-15-34.1-15.33-43s-2.46-26.65-2.46-26.65Z"/><path class="cls-20" d="M1118,182.09s-18.69,9-29.47,5.68a25.33,25.33,0,0,1,7.3-5.84c-.38-2.16-.67-4-.83-5.63a51.56,51.56,0,0,1-.46-5.76l7.21-5.67,6.84-5.43C1108,174.71,1118,182.09,1118,182.09Z"/><path class="cls-41" d="M1127.83,278.39c.05,1.15-2.4,2.45-3.48,2.94-8,3.51-15.46,6-23.92,6.78-10,1-21.8-1.23-25.86-1.15a1.66,1.66,0,0,1-1.12-.45c-.29-.2-.5-12.24-.29-27.38,0-.61,0-1.23,0-1.84v-.2c.08-5.92.29-12.12.58-18.33.58-13.63,1.66-26.77,3.48-34,2.2-8.57,7.18-14.24,11.69-18.37l3.73-3.26a18,18,0,0,0,11.61-1.39c4.31-2.08,9-4.33,9.7-3.75,5.64,4.12,9.45,13.38,11.48,25.22l0,.18a131.65,131.65,0,0,1,1.67,22.27c0,2.94-.08,6-.25,8.94a267.27,267.27,0,0,0,.27,33.84c.11,1.64.22,3.14.31,4.48C1127.67,275.25,1127.79,277.09,1127.83,278.39Z"/><path class="cls-15" d="M1127.19,268.4c-31-35.78-11.76-61.79-11.76-61.79l10.07-3.26a131.65,131.65,0,0,1,1.67,22.27c0,2.94-.08,6-.25,8.94A267.27,267.27,0,0,0,1127.19,268.4Z"/><path class="cls-42" d="M1108.7,165.28s-4.73,8.61-13.72,11a51.56,51.56,0,0,1-.46-5.76l7.21-5.67Z"/><path class="cls-20" d="M1091.23,170.3s17.84,2.91,19.51-8.05,5.1-18-6.21-20.3-14.17,1.53-15.64,5.06S1086.64,169.25,1091.23,170.3Z"/><path class="cls-43" d="M1117.22,140.64c.16-.19.54-.34,1.37-.38a3.36,3.36,0,0,0-1.55-.44c-.18-1.16-.79-3.2-2.78-3.7a2.49,2.49,0,0,1,1.21,1.8c-2.31-2.37-7.24-4.09-20.91-3-18,1.42-12.08,13-9.74,14.33s8.2-2.39,12.54-2.05,5.17,6.62,6.65,7.49.89-.67,2.89-1.57,2.18,2.41,1.6,4.56,2.17,5,2.17,5l2.77-3c2.77-3,5.38-15.62,4.12-18.31C1117.45,141.12,1117.34,140.88,1117.22,140.64Z"/><path class="cls-41" d="M1114,177.85s11.29,5.35,16.7,13.56c8.39,12.74,18.12,59.18,18.3,63.48s-7.1,34.66-7.1,34.66-7.39-.48-9.29-4.21c0,0,1.47-31.19.54-33.2s-30.78-41.84-27.43-50.34S1114,177.85,1114,177.85Z"/><path class="cls-20" d="M1139.46,295.06l-5.35,8.93a.88.88,0,0,1-.53-.9c.1-.64,1.64-5.48,1.64-5.48Z"/><path class="cls-20" d="M1134.11,295.32s-3.85,4.39-3,5.38l2.78-2.15Z"/><path class="cls-13" d="M893.22,306.2a4.8,4.8,0,0,0-3.11.58S892.17,307.47,893.22,306.2Z"/><path class="cls-44" d="M890.64,300.39c-12.56.9-24,1.65-32,4.28-7.36,2.43-11.87,5.7-11.87,9.29,0,4,4.9,8.26,14.44,10.06,8,1.52,20.65,4.62,29.39,3.5,11-1.4,20.7-1.21,28.34-3.22L915.43,323,890.68,314l39.87,1.1,3.74.1a4.52,4.52,0,0,0,.17-1.2c0-3.85-5.16-7.32-13.46-9.79C913.12,301.83,902.39,299.54,890.64,300.39Z"/><path class="cls-45" d="M930.55,315.06,890.68,314,915.43,323c-2.45.55-5.14,1-8,1.41-5.09.67-11,.21-16.74,1.05-9.52,1.39-18.32-1.8-25.37-2.6-7.59-.87-15.54-5.43-14.68-8.91s6-7.82,15.27-9c6.93-.92,16.07-3.07,25.43-3.07,7.59,0,14,1.89,20.11,2.27,11.57.7,19.29,5.67,19.29,9.85A3.47,3.47,0,0,1,930.55,315.06Z"/><path class="cls-23" d="M869.65,312.71c0,.39-.84.71-1.88.71s-1.87-.32-1.87-.71.84-.72,1.87-.72S869.65,312.31,869.65,312.71Z"/><path class="cls-23" d="M881,309.26c0,.4-.84.72-1.88.72s-1.87-.32-1.87-.72.84-.72,1.87-.72S881,308.87,881,309.26Z"/><path class="cls-23" d="M874,307.36c0,.33-.7.59-1.55.59s-1.54-.26-1.54-.59.69-.59,1.54-.59S874,307,874,307.36Z"/><path class="cls-23" d="M888,305.9c0,.36-.77.66-1.72.66s-1.72-.3-1.72-.66.77-.66,1.72-.66S888,305.53,888,305.9Z"/><ellipse class="cls-23" cx="885.25" cy="312.71" rx="2.71" ry="1.04"/><path class="cls-23" d="M893.86,308.91c0,.4-.84.72-1.87.72s-1.88-.32-1.88-.72.84-.71,1.88-.71S893.86,308.52,893.86,308.91Z"/><path class="cls-23" d="M902.53,309.27c0,.2-.41.36-.93.36s-.94-.16-.94-.36.42-.36.94-.36S902.53,309.07,902.53,309.27Z"/><ellipse class="cls-23" cx="897.67" cy="306.2" rx="0.94" ry="0.36"/><path class="cls-23" d="M888,317.75c0,.2-.42.36-.94.36s-.94-.16-.94-.36.42-.36.94-.36S888,317.55,888,317.75Z"/><path class="cls-23" d="M894.38,319.38c0,.2-.42.36-.93.36s-.94-.16-.94-.36.42-.36.94-.36S894.38,319.18,894.38,319.38Z"/><ellipse class="cls-23" cx="878.08" cy="316.57" rx="2.12" ry="0.81"/><path class="cls-13" d="M868.05,316.77a4.23,4.23,0,0,0-2.74.36S867.07,317.83,868.05,316.77Z"/><path class="cls-13" d="M878.73,311.65a5.78,5.78,0,0,0-3.71.48S877.4,313.09,878.73,311.65Z"/><path class="cls-13" d="M899,308.93a5.69,5.69,0,0,0-3.47,1.38S898.07,310.65,899,308.93Z"/><path class="cls-13" d="M908,310a5.7,5.7,0,0,0-3.67-.68S906.3,310.92,908,310Z"/><path class="cls-13" d="M893.58,312.9a4.87,4.87,0,0,0-2.61-1.79S891.93,313.06,893.58,312.9Z"/><path class="cls-13" d="M890.39,314.83a4.81,4.81,0,0,0-3,.95S889.5,316.22,890.39,314.83Z"/><path class="cls-13" d="M891.93,320.91a4.84,4.84,0,0,0-3.07-.73S890.45,321.65,891.93,320.91Z"/><path class="cls-13" d="M894.31,316.83a4.85,4.85,0,0,0-3,1.05S893.46,318.25,894.31,316.83Z"/><path class="cls-13" d="M886.82,309.32a4.85,4.85,0,0,0-3.13.47S885.72,310.56,886.82,309.32Z"/><path class="cls-13" d="M882.72,307.54a4.77,4.77,0,0,0-3-1.09S881.16,308.09,882.72,307.54Z"/><path class="cls-46" d="M870.58,317.67h0c-1.84.46-2.76,1.41-2.05,2.1h0c.54.52,1.72.41,3.06.12l.68.66a.78.78,0,0,0,.61.05l1.31-.33c.24-.06.36-.19.27-.28l-.68-.65c1.24-.36,2-.74,1.45-1.27h0C874.51,317.38,872.42,317.2,870.58,317.67Z"/><path class="cls-46" d="M905.55,305.64h0c1.5.38,2.25,1.15,1.67,1.71h0c-.43.42-1.4.34-2.49.1l-.55.54a.66.66,0,0,1-.5,0l-1.07-.27c-.2-.05-.3-.15-.22-.22l.55-.54c-1-.29-1.63-.6-1.17-1h0C902.35,305.41,904.05,305.26,905.55,305.64Z"/><path class="cls-46" d="M884.13,314.74h0c1.5.39,2.25,1.16,1.67,1.72h0c-.44.42-1.4.33-2.49.1l-.56.53a.6.6,0,0,1-.5.05l-1.06-.27c-.2-.05-.3-.16-.22-.23l.55-.53c-1-.3-1.63-.6-1.18-1h0C880.92,314.51,882.63,314.36,884.13,314.74Z"/><path class="cls-46" d="M871.43,308.92h0c-1.5.38-2.25,1.15-1.67,1.71h0c.43.43,1.4.34,2.49.1l.55.54a.66.66,0,0,0,.5,0l1.07-.27c.2-.05.29-.15.22-.22l-.55-.54c1-.29,1.63-.6,1.17-1h0C874.63,308.69,872.93,308.54,871.43,308.92Z"/><path class="cls-44" d="M936.78,313.92,902.36,313l-4.69-1.31v1.18l26.85,9.82c8.11-2.13,13.55-5.21,14.54-8.68V312.8Z"/><path class="cls-47" d="M939.06,312.8c-1,3.47-6.43,6.55-14.54,8.68L912.35,317l-2.53-.93h0l-12.15-4.44Z"/><path class="cls-23" d="M911.44,313.78c0,.39-.84.71-1.88.71s-1.87-.32-1.87-.71.84-.72,1.87-.72S911.44,313.38,911.44,313.78Z"/><path class="cls-23" d="M913.42,316.38c0,.29-.44.53-1.07.65l-2.53-.93a2.88,2.88,0,0,1,1.72-.43C912.58,315.67,913.42,316,913.42,316.38Z"/><path class="cls-23" d="M920.11,316.55c0,.19-.42.35-.93.35s-.94-.16-.94-.35.42-.36.94-.36S920.11,316.35,920.11,316.55Z"/><ellipse class="cls-23" cx="924.2" cy="314.49" rx="0.94" ry="0.36"/><path class="cls-23" d="M915.62,314c0,.19-.42.35-.93.35s-.94-.16-.94-.35.42-.36.94-.36S915.62,313.76,915.62,314Z"/><path class="cls-23" d="M920.42,313.32c0,.33-.69.59-1.54.59s-1.55-.26-1.55-.59.69-.59,1.55-.59S920.42,313,920.42,313.32Z"/><path class="cls-23" d="M918.88,315.24c0,.22-.47.4-1,.4s-1-.18-1-.4.47-.4,1-.4S918.88,315,918.88,315.24Z"/><path class="cls-23" d="M905.18,313.06c0,.15-.31.26-.69.26s-.69-.11-.69-.26.31-.26.69-.26S905.18,312.92,905.18,313.06Z"/><path class="cls-13" d="M913.12,314a4,4,0,0,0-2.41,1S912.47,315.2,913.12,314Z"/><path class="cls-13" d="M928.64,314.91a4,4,0,0,0-2.45-.84S927.37,315.4,928.64,314.91Z"/><path class="cls-13" d="M916.4,316.38a4,4,0,0,0-2.48-.76S915.15,316.91,916.4,316.38Z"/><path class="cls-13" d="M924.52,317.23a3.93,3.93,0,0,0-2.51.65S923.73,318.33,924.52,317.23Z"/><path class="cls-13" d="M903.89,312.26a3.52,3.52,0,0,0-2.27.36S903.1,313.16,903.89,312.26Z"/><path class="cls-44" d="M854.51,159.19c-5.57.8-10.62,1.45-14.16,3.79-3.26,2.14-5.25,5-5.25,8.21a9.63,9.63,0,0,0,6.39,8.91c3.56,1.34,9.15,4.08,13,3.1,4.85-1.24,9.17-1.08,12.55-2.85l-1.57-1.15-11-8,17.66,1,1.65.09a7.59,7.59,0,0,0,.08-1.07c0-3.4-2.29-6.47-6-8.65C864.47,160.46,859.71,158.44,854.51,159.19Z"/><path class="cls-45" d="M872.19,172.17l-17.66-1,11,8a23.48,23.48,0,0,1-3.55,1.25c-2.25.6-4.87.19-7.41.93-4.22,1.23-8.12-1.59-11.24-2.31-3.36-.76-6.88-4.79-6.5-7.88a9.52,9.52,0,0,1,6.76-8c3.07-.82,7.12-2.72,11.26-2.72,3.37,0,6.19,1.68,8.91,2,5.13.62,8.55,5,8.55,8.71A6.37,6.37,0,0,1,872.19,172.17Z"/><path class="cls-23" d="M845.21,170.09c0,.35-.37.63-.83.63s-.83-.28-.83-.63a.86.86,0,0,1,1.66,0Z"/><path class="cls-23" d="M850.26,167c0,.35-.38.63-.83.63s-.83-.28-.83-.63a.86.86,0,0,1,1.66,0Z"/><ellipse class="cls-23" cx="846.46" cy="165.36" rx="0.68" ry="0.52"/><path class="cls-23" d="M853.33,164.06c0,.32-.35.58-.77.58a.6.6,0,1,1,0-1.16C853,163.48,853.33,163.74,853.33,164.06Z"/><path class="cls-23" d="M853.33,170.09a1.25,1.25,0,0,1-2.41,0,1.25,1.25,0,0,1,2.41,0Z"/><path class="cls-23" d="M855.94,166.73c0,.35-.38.63-.83.63s-.83-.28-.83-.63.37-.63.83-.63S855.94,166.38,855.94,166.73Z"/><path class="cls-23" d="M859.78,167.05c0,.17-.19.31-.42.31s-.41-.14-.41-.31a.37.37,0,0,1,.41-.32A.38.38,0,0,1,859.78,167.05Z"/><path class="cls-23" d="M858,164.33c0,.17-.19.31-.42.31s-.41-.14-.41-.31a.37.37,0,0,1,.41-.32A.38.38,0,0,1,858,164.33Z"/><path class="cls-23" d="M853.33,174.55c0,.17-.19.31-.42.31s-.41-.14-.41-.31a.37.37,0,0,1,.41-.32A.38.38,0,0,1,853.33,174.55Z"/><path class="cls-23" d="M856.17,176a.38.38,0,0,1-.42.32.33.33,0,1,1,0-.64A.38.38,0,0,1,856.17,176Z"/><path class="cls-23" d="M849.88,173.5a1,1,0,1,1-.94-.71A.85.85,0,0,1,849.88,173.5Z"/><path class="cls-13" d="M844.5,173.68a1,1,0,0,0-1.21.32A.74.74,0,0,0,844.5,173.68Z"/><path class="cls-13" d="M849.23,169.15a1.42,1.42,0,0,0-1.64.43A1,1,0,0,0,849.23,169.15Z"/><path class="cls-13" d="M858.21,166.74s-.86,0-1.54,1.23C856.67,168,857.8,168.26,858.21,166.74Z"/><path class="cls-13" d="M862.2,167.66a1.64,1.64,0,0,0-1.63-.61S861.44,168.51,862.2,167.66Z"/><path class="cls-13" d="M855.81,170.26a3.16,3.16,0,0,0-1.15-1.58S855.08,170.39,855.81,170.26Z"/><path class="cls-13" d="M854.4,172s-.73-.11-1.33.84C853.07,172.81,854,173.2,854.4,172Z"/><path class="cls-13" d="M855.08,177.35s-.6-.84-1.36-.65C853.72,176.7,854.42,178,855.08,177.35Z"/><path class="cls-13" d="M856.13,173.74s-.72-.06-1.32.92C854.81,174.66,855.76,175,856.13,173.74Z"/><path class="cls-13" d="M852.81,167.09a1.2,1.2,0,0,0-1.38.42A.86.86,0,0,0,852.81,167.09Z"/><path class="cls-13" d="M851,165.51s-.54-1-1.31-1C849.69,164.55,850.31,166,851,165.51Z"/><path class="cls-46" d="M845.63,174.48h0a1.47,1.47,0,0,0-.91,1.85h0c.23.46.76.36,1.35.11l.3.58a.21.21,0,0,0,.27,0l.58-.29a.2.2,0,0,0,.12-.25L847,176c.55-.31.89-.65.64-1.12h0A1.5,1.5,0,0,0,845.63,174.48Z"/><path class="cls-46" d="M861.11,163.83h0a1.21,1.21,0,0,1,.74,1.52h0c-.19.37-.62.29-1.1.09l-.25.47c0,.07-.13.08-.22,0l-.47-.24a.16.16,0,0,1-.1-.2L860,165c-.45-.26-.72-.53-.52-.92h0A1.24,1.24,0,0,1,861.11,163.83Z"/><path class="cls-46" d="M851.62,171.89h0a1.22,1.22,0,0,1,.75,1.51h0c-.2.38-.63.3-1.11.09L851,174a.18.18,0,0,1-.23,0l-.47-.23c-.08-.05-.13-.14-.09-.2l.24-.48c-.45-.25-.72-.53-.52-.91h0A1.23,1.23,0,0,1,851.62,171.89Z"/><path class="cls-46" d="M846,166.74h0a1.21,1.21,0,0,0-.74,1.51h0c.19.37.62.3,1.1.09l.25.47a.15.15,0,0,0,.22,0l.47-.24a.16.16,0,0,0,.1-.2l-.24-.47c.44-.26.72-.53.52-.91h0A1.24,1.24,0,0,0,846,166.74Z"/><path class="cls-44" d="M874.94,171.16l-15.24-.84-2.08-1.16v1l11.9,8.69c3.59-1.88,6-4.61,6.43-7.68v-1Z"/><path class="cls-47" d="M876,170.17c-.43,3.07-2.84,5.79-6.43,7.68l-5.39-3.94-1.13-.82h0l-5.38-3.93Z"/><path class="cls-23" d="M863.72,171a.86.86,0,0,1-1.66,0c0-.35.37-.63.83-.63S863.72,170.68,863.72,171Z"/><path class="cls-23" d="M864.6,173.34a.65.65,0,0,1-.47.57l-1.13-.82a.87.87,0,0,1,.77-.39A.76.76,0,0,1,864.6,173.34Z"/><path class="cls-23" d="M867.56,173.48a.37.37,0,0,1-.41.32.38.38,0,0,1-.42-.32c0-.17.19-.31.42-.31S867.56,173.31,867.56,173.48Z"/><path class="cls-23" d="M869.79,171.67c0,.17-.19.31-.42.31s-.41-.14-.41-.31a.38.38,0,0,1,.41-.32A.38.38,0,0,1,869.79,171.67Z"/><path class="cls-23" d="M865.57,171.19a.37.37,0,0,1-.41.32.38.38,0,0,1-.42-.32.39.39,0,0,1,.42-.32A.38.38,0,0,1,865.57,171.19Z"/><path class="cls-23" d="M867.7,170.63a.62.62,0,0,1-.68.52c-.38,0-.69-.23-.69-.52s.31-.52.69-.52A.62.62,0,0,1,867.7,170.63Z"/><path class="cls-23" d="M867,172.33c0,.19-.21.35-.47.35s-.46-.16-.46-.35.21-.35.46-.35S867,172.13,867,172.33Z"/><path class="cls-23" d="M861,170.4c0,.13-.14.23-.31.23s-.3-.1-.3-.23.13-.23.3-.23S861,170.27,861,170.4Z"/><path class="cls-13" d="M864.47,171.23s-.6,0-1.07.85C863.4,172.08,864.18,172.29,864.47,171.23Z"/><path class="cls-13" d="M871.34,172s-.45-.77-1.09-.74C870.25,171.29,870.78,172.47,871.34,172Z"/><path class="cls-13" d="M865.92,173.33s-.47-.74-1.1-.67C864.82,172.66,865.36,173.8,865.92,173.33Z"/><path class="cls-13" d="M869.52,174.09a1.12,1.12,0,0,0-1.12.57S869.17,175.06,869.52,174.09Z"/><path class="cls-13" d="M860.38,169.69a.9.9,0,0,0-1,.32A.64.64,0,0,0,860.38,169.69Z"/><path class="cls-44" d="M903.31,190.94c-5.56.8-10.61,1.45-14.16,3.79-3.25,2.14-5.25,5-5.25,8.21a9.62,9.62,0,0,0,6.39,8.91c3.56,1.34,9.15,4.08,13,3.1,4.85-1.24,9.17-1.07,12.55-2.85L914.29,211l-11-8,17.66,1,1.65.09a7.59,7.59,0,0,0,.08-1.07c0-3.4-2.29-6.47-6-8.65C913.27,192.21,908.52,190.19,903.31,190.94Z"/><path class="cls-45" d="M921,203.92l-17.66-1,11,8a23.48,23.48,0,0,1-3.55,1.25c-2.25.6-4.86.19-7.41.93-4.22,1.23-8.11-1.59-11.24-2.3-3.36-.77-6.88-4.8-6.5-7.89a9.52,9.52,0,0,1,6.76-8c3.07-.82,7.12-2.71,11.26-2.71,3.37,0,6.19,1.67,8.91,2,5.13.62,8.55,5,8.55,8.71A6.37,6.37,0,0,1,921,203.92Z"/><path class="cls-23" d="M894,201.84c0,.35-.37.63-.83.63s-.83-.28-.83-.63a.86.86,0,0,1,1.66,0Z"/><path class="cls-23" d="M899.06,198.79c0,.35-.37.63-.83.63s-.83-.28-.83-.63a.86.86,0,0,1,1.66,0Z"/><path class="cls-23" d="M895.94,197.11c0,.29-.3.52-.68.52s-.69-.23-.69-.52.31-.52.69-.52S895.94,196.82,895.94,197.11Z"/><path class="cls-23" d="M902.13,195.81c0,.32-.34.58-.77.58a.6.6,0,1,1,0-1.16C901.79,195.23,902.13,195.49,902.13,195.81Z"/><path class="cls-23" d="M902.13,201.84a1.25,1.25,0,0,1-2.41,0,1.25,1.25,0,0,1,2.41,0Z"/><path class="cls-23" d="M904.74,198.48a.86.86,0,0,1-1.66,0c0-.35.37-.63.83-.63S904.74,198.13,904.74,198.48Z"/><path class="cls-23" d="M908.58,198.8a.39.39,0,0,1-.42.32.38.38,0,0,1-.41-.32.37.37,0,0,1,.41-.32A.38.38,0,0,1,908.58,198.8Z"/><path class="cls-23" d="M906.84,196.08c0,.17-.19.31-.42.31s-.41-.14-.41-.31a.37.37,0,0,1,.41-.32A.38.38,0,0,1,906.84,196.08Z"/><path class="cls-23" d="M902.13,206.3c0,.17-.19.31-.42.31s-.41-.14-.41-.31a.37.37,0,0,1,.41-.32A.38.38,0,0,1,902.13,206.3Z"/><path class="cls-23" d="M905,207.74a.38.38,0,0,1-.42.32.37.37,0,0,1-.41-.32.38.38,0,0,1,.41-.32A.39.39,0,0,1,905,207.74Z"/><path class="cls-23" d="M898.68,205.25a1,1,0,1,1-.93-.71A.85.85,0,0,1,898.68,205.25Z"/><path class="cls-13" d="M893.3,205.43a1,1,0,0,0-1.21.32A.74.74,0,0,0,893.3,205.43Z"/><path class="cls-13" d="M898,200.9a1.42,1.42,0,0,0-1.64.43A1,1,0,0,0,898,200.9Z"/><path class="cls-13" d="M907,198.49s-.86,0-1.54,1.23C905.47,199.72,906.6,200,907,198.49Z"/><path class="cls-13" d="M911,199.41a1.64,1.64,0,0,0-1.63-.61S910.25,200.26,911,199.41Z"/><path class="cls-13" d="M904.61,202a3.1,3.1,0,0,0-1.15-1.58S903.88,202.15,904.61,202Z"/><path class="cls-13" d="M903.2,203.72s-.72-.11-1.33.84C901.87,204.56,902.81,205,903.2,203.72Z"/><path class="cls-13" d="M903.88,209.1s-.59-.84-1.36-.65C902.52,208.45,903.23,209.75,903.88,209.1Z"/><path class="cls-13" d="M904.93,205.49s-.72-.06-1.32.92C903.61,206.41,904.56,206.75,904.93,205.49Z"/><path class="cls-13" d="M901.62,198.84a1.22,1.22,0,0,0-1.39.42A.87.87,0,0,0,901.62,198.84Z"/><path class="cls-13" d="M899.8,197.26s-.54-1-1.31-1C898.49,196.3,899.11,197.75,899.8,197.26Z"/><path class="cls-46" d="M894.43,206.23h0a1.47,1.47,0,0,0-.91,1.85h0c.23.46.76.36,1.35.11l.3.58a.2.2,0,0,0,.27,0l.58-.29a.2.2,0,0,0,.12-.25l-.3-.57c.55-.32.89-.66.64-1.13h0A1.5,1.5,0,0,0,894.43,206.23Z"/><path class="cls-46" d="M909.91,195.58h0a1.23,1.23,0,0,1,.75,1.52h0c-.2.37-.63.29-1.11.09l-.24.47a.18.18,0,0,1-.23,0l-.47-.24a.17.17,0,0,1-.1-.2l.25-.47c-.45-.26-.72-.53-.52-.92h0A1.24,1.24,0,0,1,909.91,195.58Z"/><path class="cls-46" d="M900.43,203.64h0a1.22,1.22,0,0,1,.74,1.51h0c-.2.38-.62.3-1.11.09l-.24.48a.16.16,0,0,1-.22,0l-.48-.23c-.08-.05-.13-.14-.09-.2l.24-.47c-.45-.26-.72-.53-.52-.92h0A1.24,1.24,0,0,1,900.43,203.64Z"/><path class="cls-46" d="M894.8,198.49h0a1.21,1.21,0,0,0-.74,1.51h0c.19.38.62.3,1.1.09l.25.47a.15.15,0,0,0,.22,0l.47-.24a.16.16,0,0,0,.1-.2l-.24-.47c.44-.26.72-.53.52-.91h0A1.24,1.24,0,0,0,894.8,198.49Z"/><path class="cls-44" d="M923.74,202.91l-15.24-.84-2.08-1.16v1l11.9,8.69c3.59-1.88,6-4.61,6.43-7.68v-1Z"/><path class="cls-47" d="M924.75,201.92c-.43,3.07-2.84,5.79-6.43,7.68l-5.39-3.94-1.13-.82h0l-5.38-3.93Z"/><path class="cls-23" d="M912.52,202.78a.86.86,0,0,1-1.66,0c0-.35.37-.63.83-.63S912.52,202.43,912.52,202.78Z"/><path class="cls-23" d="M913.4,205.09a.64.64,0,0,1-.47.57l-1.13-.82a.88.88,0,0,1,.77-.39A.76.76,0,0,1,913.4,205.09Z"/><path class="cls-23" d="M916.36,205.23a.37.37,0,0,1-.41.32.38.38,0,0,1-.42-.32c0-.17.19-.31.42-.31S916.36,205.06,916.36,205.23Z"/><path class="cls-23" d="M918.59,203.42a.38.38,0,0,1-.41.32.39.39,0,0,1-.42-.32.38.38,0,0,1,.42-.32A.38.38,0,0,1,918.59,203.42Z"/><path class="cls-23" d="M914.38,202.94a.38.38,0,0,1-.42.32.37.37,0,0,1-.41-.32.38.38,0,0,1,.41-.32A.39.39,0,0,1,914.38,202.94Z"/><path class="cls-23" d="M916.5,202.38a.71.71,0,0,1-1.37,0c0-.29.31-.52.69-.52A.62.62,0,0,1,916.5,202.38Z"/><path class="cls-23" d="M915.82,204.08c0,.19-.21.35-.47.35s-.46-.16-.46-.35.21-.35.46-.35S915.82,203.88,915.82,204.08Z"/><path class="cls-23" d="M909.75,202.15c0,.13-.14.23-.31.23s-.3-.1-.3-.23.14-.23.3-.23S909.75,202,909.75,202.15Z"/><path class="cls-13" d="M913.27,203s-.6,0-1.07.85C912.2,203.84,913,204,913.27,203Z"/><path class="cls-13" d="M920.14,203.78s-.45-.77-1.09-.74C919.05,203,919.58,204.22,920.14,203.78Z"/><path class="cls-13" d="M914.72,205.08s-.47-.74-1.1-.66C913.62,204.42,914.16,205.55,914.72,205.08Z"/><path class="cls-13" d="M918.32,205.84a1.12,1.12,0,0,0-1.12.57S918,206.81,918.32,205.84Z"/><path class="cls-13" d="M909.18,201.44a.9.9,0,0,0-1,.32A.64.64,0,0,0,909.18,201.44Z"/><path class="cls-44" d="M854.51,224.37c-5.57.8-10.62,1.46-14.16,3.79-3.26,2.15-5.25,5-5.25,8.22a9.6,9.6,0,0,0,6.39,8.9c3.56,1.34,9.15,4.09,13,3.1,4.85-1.24,9.17-1.07,12.55-2.85l-1.57-1.15-11-8,17.66,1,1.65.09a7.56,7.56,0,0,0,.08-1.06c0-3.41-2.29-6.48-6-8.66C864.47,225.65,859.71,223.62,854.51,224.37Z"/><path class="cls-45" d="M872.19,237.35l-17.66-1,11,8a21.48,21.48,0,0,1-3.55,1.25c-2.25.6-4.87.19-7.41.93-4.22,1.23-8.12-1.59-11.24-2.3-3.36-.77-6.88-4.8-6.5-7.88a9.52,9.52,0,0,1,6.76-8c3.07-.82,7.12-2.71,11.26-2.71,3.37,0,6.19,1.67,8.91,2,5.13.62,8.55,5,8.55,8.72A6.35,6.35,0,0,1,872.19,237.35Z"/><path class="cls-23" d="M845.21,235.27c0,.35-.37.63-.83.63s-.83-.28-.83-.63.37-.63.83-.63S845.21,234.92,845.21,235.27Z"/><path class="cls-23" d="M850.26,232.22a.86.86,0,0,1-1.66,0c0-.35.37-.63.83-.63S850.26,231.87,850.26,232.22Z"/><path class="cls-23" d="M847.14,230.54c0,.29-.3.52-.68.52s-.69-.23-.69-.52.31-.52.69-.52S847.14,230.25,847.14,230.54Z"/><path class="cls-23" d="M853.33,229.24a.7.7,0,0,1-.77.59.61.61,0,1,1,0-1.17C853,228.66,853.33,228.92,853.33,229.24Z"/><path class="cls-23" d="M853.33,235.27a1.25,1.25,0,1,1-1.21-.92A1.09,1.09,0,0,1,853.33,235.27Z"/><path class="cls-23" d="M855.94,231.91a.86.86,0,0,1-1.66,0c0-.35.37-.63.83-.63S855.94,231.56,855.94,231.91Z"/><path class="cls-23" d="M859.78,232.23a.38.38,0,0,1-.42.32.37.37,0,0,1-.41-.32.38.38,0,0,1,.41-.32A.39.39,0,0,1,859.78,232.23Z"/><path class="cls-23" d="M858,229.51a.39.39,0,0,1-.42.32.38.38,0,0,1-.41-.32.37.37,0,0,1,.41-.32A.38.38,0,0,1,858,229.51Z"/><path class="cls-23" d="M853.33,239.73a.38.38,0,0,1-.42.32.37.37,0,0,1-.41-.32.38.38,0,0,1,.41-.32A.39.39,0,0,1,853.33,239.73Z"/><path class="cls-23" d="M856.17,241.17a.38.38,0,0,1-.42.32.37.37,0,0,1-.41-.32c0-.17.18-.31.41-.31S856.17,241,856.17,241.17Z"/><path class="cls-23" d="M849.88,238.69a1,1,0,1,1-.94-.72A.85.85,0,0,1,849.88,238.69Z"/><path class="cls-13" d="M844.5,238.87a1,1,0,0,0-1.21.31A.75.75,0,0,0,844.5,238.87Z"/><path class="cls-13" d="M849.23,234.34a1.42,1.42,0,0,0-1.64.42A1,1,0,0,0,849.23,234.34Z"/><path class="cls-13" d="M858.21,231.92s-.86,0-1.54,1.23C856.67,233.15,857.8,233.45,858.21,231.92Z"/><path class="cls-13" d="M862.2,232.84a1.64,1.64,0,0,0-1.63-.6S861.44,233.69,862.2,232.84Z"/><path class="cls-13" d="M855.81,235.44a3.2,3.2,0,0,0-1.15-1.58S855.08,235.58,855.81,235.44Z"/><path class="cls-13" d="M854.4,237.15a1.47,1.47,0,0,0-1.33.84S854,238.38,854.4,237.15Z"/><path class="cls-13" d="M855.08,242.53s-.6-.83-1.36-.65C853.72,241.88,854.42,243.18,855.08,242.53Z"/><path class="cls-13" d="M856.13,238.92s-.72-.06-1.32.93C854.81,239.85,855.76,240.18,856.13,238.92Z"/><path class="cls-13" d="M852.81,232.27a1.22,1.22,0,0,0-1.38.42A.86.86,0,0,0,852.81,232.27Z"/><path class="cls-13" d="M851,230.69s-.54-1-1.31-1C849.69,229.73,850.31,231.19,851,230.69Z"/><path class="cls-46" d="M845.63,239.66h0a1.48,1.48,0,0,0-.91,1.86h0c.23.46.76.36,1.35.11l.3.58a.19.19,0,0,0,.27,0l.58-.29a.19.19,0,0,0,.12-.24l-.3-.58c.55-.32.89-.65.64-1.13h0A1.52,1.52,0,0,0,845.63,239.66Z"/><path class="cls-46" d="M861.11,229h0a1.2,1.2,0,0,1,.74,1.51h0c-.19.38-.62.3-1.1.09l-.25.47a.15.15,0,0,1-.22,0l-.47-.24a.16.16,0,0,1-.1-.2l.25-.47c-.45-.26-.72-.53-.52-.91h0A1.22,1.22,0,0,1,861.11,229Z"/><path class="cls-46" d="M851.62,237.07h0a1.23,1.23,0,0,1,.75,1.52h0c-.2.37-.63.29-1.11.09l-.24.47a.18.18,0,0,1-.23,0l-.47-.24c-.08,0-.13-.14-.09-.2l.24-.47c-.45-.26-.72-.53-.52-.92h0A1.25,1.25,0,0,1,851.62,237.07Z"/><path class="cls-46" d="M846,231.92h0a1.21,1.21,0,0,0-.74,1.51h0c.19.38.62.3,1.1.09l.25.48a.17.17,0,0,0,.22,0l.47-.24a.17.17,0,0,0,.1-.2l-.24-.47c.44-.26.72-.53.52-.92h0A1.24,1.24,0,0,0,846,231.92Z"/><path class="cls-44" d="M874.94,236.34l-15.24-.84-2.08-1.16v1l11.9,8.69c3.59-1.89,6-4.61,6.43-7.68v-1.05Z"/><path class="cls-47" d="M876,235.35c-.43,3.07-2.84,5.8-6.43,7.68l-5.39-3.94-1.13-.82h0l-5.38-3.93Z"/><path class="cls-23" d="M863.72,236.22c0,.35-.37.63-.83.63s-.83-.28-.83-.63a.86.86,0,0,1,1.66,0Z"/><path class="cls-23" d="M864.6,238.52a.65.65,0,0,1-.47.57l-1.13-.82a.88.88,0,0,1,.77-.38C864.23,237.89,864.6,238.17,864.6,238.52Z"/><path class="cls-23" d="M867.56,238.67c0,.17-.18.31-.41.31s-.42-.14-.42-.31a.38.38,0,0,1,.42-.32A.37.37,0,0,1,867.56,238.67Z"/><path class="cls-23" d="M869.79,236.85a.38.38,0,0,1-.42.32.38.38,0,0,1-.41-.32.38.38,0,0,1,.41-.32A.39.39,0,0,1,869.79,236.85Z"/><path class="cls-23" d="M865.57,236.37a.37.37,0,0,1-.41.32.38.38,0,0,1-.42-.32c0-.17.19-.31.42-.31S865.57,236.2,865.57,236.37Z"/><path class="cls-23" d="M867.7,235.82a.63.63,0,0,1-.68.52c-.38,0-.69-.24-.69-.52a.71.71,0,0,1,1.37,0Z"/><path class="cls-23" d="M867,237.51a.48.48,0,0,1-.93,0c0-.19.21-.35.46-.35S867,237.32,867,237.51Z"/><path class="cls-23" d="M861,235.58a.28.28,0,0,1-.31.24.27.27,0,0,1-.3-.24c0-.13.13-.23.3-.23S861,235.45,861,235.58Z"/><path class="cls-13" d="M864.47,236.42s-.6,0-1.07.85C863.4,237.27,864.18,237.48,864.47,236.42Z"/><path class="cls-13" d="M871.34,237.22s-.45-.77-1.09-.74C870.25,236.48,870.78,237.65,871.34,237.22Z"/><path class="cls-13" d="M865.92,238.52s-.47-.74-1.1-.67C864.82,237.85,865.36,239,865.92,238.52Z"/><path class="cls-13" d="M869.52,239.27a1.12,1.12,0,0,0-1.12.58S869.17,240.25,869.52,239.27Z"/><path class="cls-13" d="M860.38,234.87a.9.9,0,0,0-1,.32A.64.64,0,0,0,860.38,234.87Z"/><path class="cls-44" d="M936.34,312.73s-2.42,1.16-3.09,2.61-3.4,1-4.61,1.87-2.46,3.7-5.78,3.66v.61l1.34.52s9-2.51,10.26-3.49,4.18-3.53,4.18-3.53l.42-2.18Z"/><path class="cls-29" d="M884.05,373.57H857.78a1.07,1.07,0,0,1-1.07-1.07h0a1.07,1.07,0,0,1,1.07-1.07h26.27a1.07,1.07,0,0,1,1.07,1.07h0A1.07,1.07,0,0,1,884.05,373.57Z"/><path class="cls-29" d="M884.05,368.55H857.78a1.07,1.07,0,0,1-1.07-1.07h0a1.07,1.07,0,0,1,1.07-1.07h26.27a1.07,1.07,0,0,1,1.07,1.07h0A1.07,1.07,0,0,1,884.05,368.55Z"/><path class="cls-46" d="M869.52,198.53H839a1.17,1.17,0,0,1-1.17-1.17h0a1.17,1.17,0,0,1,1.17-1.17h30.49a1.18,1.18,0,0,1,1.18,1.17h0A1.17,1.17,0,0,1,869.52,198.53Z"/><path class="cls-46" d="M869.52,203.32H839a1.17,1.17,0,0,1-1.17-1.17h0A1.17,1.17,0,0,1,839,201h30.49a1.18,1.18,0,0,1,1.18,1.17h0A1.18,1.18,0,0,1,869.52,203.32Z"/><path class="cls-46" d="M869.52,208.11H839a1.17,1.17,0,0,1-1.17-1.17h0a1.17,1.17,0,0,1,1.17-1.18h30.49a1.18,1.18,0,0,1,1.18,1.18h0A1.18,1.18,0,0,1,869.52,208.11Z"/><path class="cls-46" d="M921.67,164.37h-30.5A1.17,1.17,0,0,1,890,163.2h0a1.18,1.18,0,0,1,1.17-1.17h30.5a1.17,1.17,0,0,1,1.17,1.17h0A1.17,1.17,0,0,1,921.67,164.37Z"/><path class="cls-46" d="M921.67,169.16h-30.5A1.18,1.18,0,0,1,890,168h0a1.17,1.17,0,0,1,1.17-1.17h30.5a1.17,1.17,0,0,1,1.17,1.17h0A1.17,1.17,0,0,1,921.67,169.16Z"/><path class="cls-46" d="M921.67,174h-30.5a1.18,1.18,0,0,1-1.17-1.17h0a1.18,1.18,0,0,1,1.17-1.18h30.5a1.17,1.17,0,0,1,1.17,1.18h0A1.17,1.17,0,0,1,921.67,174Z"/><path class="cls-46" d="M921.67,232.29h-30.5a1.18,1.18,0,0,1-1.17-1.17h0a1.17,1.17,0,0,1,1.17-1.17h30.5a1.17,1.17,0,0,1,1.17,1.17h0A1.17,1.17,0,0,1,921.67,232.29Z"/><path class="cls-46" d="M921.67,237.08h-30.5A1.18,1.18,0,0,1,890,235.9h0a1.18,1.18,0,0,1,1.17-1.17h30.5a1.17,1.17,0,0,1,1.17,1.17h0A1.17,1.17,0,0,1,921.67,237.08Z"/><path class="cls-46" d="M921.67,241.86h-30.5a1.18,1.18,0,0,1-1.17-1.17h0a1.18,1.18,0,0,1,1.17-1.17h30.5a1.17,1.17,0,0,1,1.17,1.17h0A1.17,1.17,0,0,1,921.67,241.86Z"/><path class="cls-26" d="M1005.08,235.9h-29.2a8.76,8.76,0,0,1-8.74-8.73h0a8.76,8.76,0,0,1,8.74-8.74h29.2a8.76,8.76,0,0,1,8.74,8.74h0A8.76,8.76,0,0,1,1005.08,235.9Z"/><path class="cls-5" d="M984.89,224.66s5.55,7.76,5.53,7.47,5.64-11,5.64-11l-6.53,6.33Z"/><polygon class="cls-36" points="898.29 331.48 879.54 336.01 873.71 333.51 891.88 329.32 898.29 331.48"/><rect class="cls-48" x="577.91" y="448.42" width="656.39" height="2.02" rx="0.64"/></g></g></svg>