<svg xmlns="http://www.w3.org/2000/svg" viewBox="0 0 85.55 61.49"><defs><style>.cls-1{fill:#d84905;}.cls-2{fill:#ef8f04;}</style></defs><g id="Layer_2" data-name="Layer 2"><g id="Layer_1-2" data-name="Layer 1"><g id="Layer_2-2" data-name="Layer 2"><g id="Слой_1" data-name="Слой 1"><path class="cls-1" d="M49.2,2.83A5.09,5.09,0,0,1,50,1.72l.07-.05C51.81.25,52.48-.1,54.46.85a5,5,0,0,1,2,2.12,5.07,5.07,0,0,1,.29.57,1.46,1.46,0,0,1,.09.36A4.7,4.7,0,0,1,58,4c7.25.48,15,3.73,19.78,10.21.33.46.64.95,1,1.44a27.37,27.37,0,0,1,4,13.46l-2.37.2a1.87,1.87,0,0,0-.53.05c-14.16,1.22-27.93,3.44-41.79,5-.47.06-.91.11-1.38.15l-.93.11-1,.09s-.55-.24,0-.55.73-.51.67-1.36v-.11a21.64,21.64,0,0,1-.29-2.25L16.52,31.89A2.32,2.32,0,0,1,14,29.76v-.22a2.31,2.31,0,0,1,1.33-2.09h.05a2.35,2.35,0,0,1,.82-.2l14.9-1.18a2.38,2.38,0,0,0,1.38-2.15v-.15a2.39,2.39,0,0,0-1.71-2.07h0a1.82,1.82,0,0,0-.8-.09L12.6,23h0a2.29,2.29,0,0,1-1.73-2.07v-.2A2.33,2.33,0,0,1,13,18.42l23.72-1.91.82-.08a2.6,2.6,0,0,0,2.33-2.58v-.2a2.47,2.47,0,0,0-.84-1.7,2.57,2.57,0,0,0-.93-.51l-13,1a2.54,2.54,0,0,1-.91-.12,2.3,2.3,0,0,1-1.6-2v-.2a2.32,2.32,0,0,1,2.15-2.3l20.06-1.6a.75.75,0,0,0,.29-.09h0L45.29,6h0a20.85,20.85,0,0,1,3.52-1.64A4.82,4.82,0,0,1,49.13,3"/><path class="cls-2" d="M82.8,29.11l-2.37.2a1.87,1.87,0,0,0-.53.05.68.68,0,0,0,0-.4h0a25.74,25.74,0,0,0-3.8-12.62A24.34,24.34,0,0,0,57.94,4.43c-.49,0-1-.07-1.45-.09a2.75,2.75,0,0,0-.14-.49,4,4,0,0,0-2-2.42,4.23,4.23,0,0,0-5.12,1.4A4.84,4.84,0,0,1,50,1.72l.09-.09A4.51,4.51,0,0,1,55.35.39a4.71,4.71,0,0,1,2.44,2.79,25.36,25.36,0,0,1,20.07,11c.33.46.64,1,1,1.44A27.47,27.47,0,0,1,82.8,29.11Z"/><path class="cls-2" d="M15.26,9.15l3-.24a2.12,2.12,0,0,1,2.27,1.95h0a2.11,2.11,0,0,1-1.94,2.28l-3,.24a2.12,2.12,0,0,1-2.28-2h0A2.12,2.12,0,0,1,15.26,9.15Z"/><path class="cls-2" d="M4.45,20.06l2.2-.17a2.13,2.13,0,0,1,2.29,1.95h0A2.13,2.13,0,0,1,7,24.13l-2.2.17A2.11,2.11,0,0,1,2.5,22.35h0A2.13,2.13,0,0,1,4.45,20.06Z"/><path class="cls-2" d="M2,29.06l6.88-.54a2.12,2.12,0,0,1,2.28,1.95h0a2.13,2.13,0,0,1-1.95,2.28l-6.87.53A2.12,2.12,0,0,1,0,31.34H0A2.12,2.12,0,0,1,2,29.06Z"/><path class="cls-2" d="M21.1,37.8l2.33-.19a2.13,2.13,0,0,1,2.29,2h0a2.12,2.12,0,0,1-1.95,2.29L21.44,42a2.13,2.13,0,0,1-2.29-1.95h0A2.13,2.13,0,0,1,21.1,37.8Z"/><path class="cls-1" d="M68.76,45.59c-.17-8.37-9.29-8.32-12.88-8h-.09c-.87.09-1.42.18-1.42.18a1.22,1.22,0,0,0-1,1.07c-.84,7.41-5.9,9.19-8.4,9.63-.78.13-1.71.29-2,1-.42,1.24-.49,3-4.08,4.75-5.12,2.57-11.18.1-11.89-2s.07-5.39,5-7.9c5.1-2.62,8.65-.42,9.58.29a1.26,1.26,0,0,0,.65.22c5,.36,6.59-2.79,7.07-4.83a1.2,1.2,0,0,0-.89-1.46,1,1,0,0,0-.42,0L29.81,40.68h-.24A1.92,1.92,0,0,1,27.68,39a1.88,1.88,0,0,1,1.67-2L83.4,30.53h.25a1.89,1.89,0,0,1,.2,3.77l-16.5,1.9a13.78,13.78,0,0,1,5.52,8.41h0s.09.16.54.22a.49.49,0,0,0,.24,0h.07A4.84,4.84,0,0,1,77,48.11l.13.49.2.67,2.46,7.89a.8.8,0,1,1-1.53.47V57.5l-2.55-8.25v-.18a.37.37,0,0,0-.09-.2.9.9,0,0,0-.28-.27,1.35,1.35,0,0,0-.34-.11,1.61,1.61,0,0,0-.31,0,.82.82,0,0,0-.37.24h0a.76.76,0,0,0-.13.62l.11.42,2.15,7,.36,1,.24.84a.64.64,0,1,1-1.24.31.59.59,0,0,1,0-.13c-.91-2.95-1.8-5.88-2.71-8.83a1.32,1.32,0,0,0-.38-.4l-.26-.07a.62.62,0,0,0-.33,0,.66.66,0,0,0-.45.35.86.86,0,0,0-.07.65v.13l.06.13,1.84,6L74.18,59l.16.51a.58.58,0,0,1-.36.75l-.06,0a.6.6,0,0,1-.78-.34s0,0,0-.06h0l-2.77-8.3-.09-.27a.73.73,0,0,0-.6-.4.81.81,0,0,0-.31.06.83.83,0,0,0-.56.91V52l.06.22,2.57,8.26v.09a.78.78,0,0,1-.53.9.83.83,0,0,1-1-.53l-2.64-8.56A7.33,7.33,0,0,1,67,50.09c.49-2.8,1.47-2.84,1.78-4.26Z"/></g></g></g></g></svg>