<svg xmlns="http://www.w3.org/2000/svg" viewBox="0 0 115.44 19.8"><defs><style>.cls-1{fill:#ef8f04;}</style></defs><g id="Layer_2" data-name="Layer 2"><g id="Слой_1" data-name="Слой 1"><path class="cls-1" d="M4.86,2.73h10L14.13,7H8.53L8.31,8.22h5.2l-.75,4.25H7.57l-.89,5H2.26Z" transform="translate(-2.26 -1.72)"/><path class="cls-1" d="M14.16,11.94a6.78,6.78,0,0,1,2.39-4A6.54,6.54,0,0,1,20.91,6.2a4.63,4.63,0,0,1,3.78,1.69,4.77,4.77,0,0,1,1,4.05A6.78,6.78,0,0,1,23.27,16a6.62,6.62,0,0,1-4.38,1.7A4.6,4.6,0,0,1,15.12,16,4.8,4.8,0,0,1,14.16,11.94Zm4.21,0a1.32,1.32,0,0,0,.24,1.11,1.21,1.21,0,0,0,1,.45A1.8,1.8,0,0,0,20.82,13a1.86,1.86,0,0,0,.64-1.1,1.29,1.29,0,0,0-.26-1.09,1.23,1.23,0,0,0-1-.44,1.73,1.73,0,0,0-1.18.44A1.81,1.81,0,0,0,18.37,11.94Z" transform="translate(-2.26 -1.72)"/><path class="cls-1" d="M26.47,11.94a6.74,6.74,0,0,1,2.39-4A6.54,6.54,0,0,1,33.22,6.2,4.61,4.61,0,0,1,37,7.89a4.74,4.74,0,0,1,1,4.05A6.73,6.73,0,0,1,35.57,16a6.62,6.62,0,0,1-4.38,1.7A4.58,4.58,0,0,1,27.43,16,4.8,4.8,0,0,1,26.47,11.94Zm4.2,0a1.29,1.29,0,0,0,.25,1.11,1.2,1.2,0,0,0,1,.45A1.78,1.78,0,0,0,33.12,13a1.86,1.86,0,0,0,.64-1.1,1.29,1.29,0,0,0-.25-1.09,1.24,1.24,0,0,0-1-.44,1.71,1.71,0,0,0-1.18.44A1.88,1.88,0,0,0,30.67,11.94Z" transform="translate(-2.26 -1.72)"/><path class="cls-1" d="M41,7.82A5.45,5.45,0,0,1,44.8,6.14a2.71,2.71,0,0,1,2.35,1.15l1-5.57h4.14L49.49,17.48H45.76l-.08-1.15a4,4,0,0,1-2.9,1.31A3.72,3.72,0,0,1,39.53,16a5.22,5.22,0,0,1-.75-4A7.26,7.26,0,0,1,41,7.82Zm2,4.08a1.4,1.4,0,0,0,.28,1.19,1.27,1.27,0,0,0,1.08.49,2,2,0,0,0,1.29-.49,1.91,1.91,0,0,0,.7-1.19,1.39,1.39,0,0,0-.28-1.2,1.36,1.36,0,0,0-1.11-.5,1.87,1.87,0,0,0-1.27.5A2,2,0,0,0,43,11.9Z" transform="translate(-2.26 -1.72)"/><path d="M61.81,10.52H54.6l-1.05,5.95h7.9l-.34,1H52.28l2.5-14.15h8.66l-.18,1H55.69l-.91,5.17H62Z" transform="translate(-2.26 -1.72)"/><path d="M66,7.37c1.24,2.49,1.77,3.6,2.07,4.2h0c.61-.68,1.87-2.14,3.69-4.2h1.15l-4.38,4.89,2.66,5.22H70c-1.07-2.17-1.85-3.7-2.21-4.41h0c-.49.59-1.64,2-3.73,4.41H62.87l4.48-5.14-2.54-5Z" transform="translate(-2.26 -1.72)"/><path d="M74.26,16l-1,5.54h-1l2-11.66c.15-.83.31-1.72.42-2.49h1c0,.38-.13,1-.28,1.82a4.56,4.56,0,0,1,3.92-2.06c2.38,0,3.69,2,3.15,5-.64,3.64-2.92,5.56-5.36,5.56C75.39,17.72,74.6,16.93,74.26,16Zm7.2-3.78c.41-2.34-.41-4.1-2.41-4.1-2.45,0-3.73,1.53-4.21,4.28s0,4.39,2.54,4.39C79.48,16.77,81,15,81.46,12.2Z" transform="translate(-2.26 -1.72)"/><path d="M85.42,10.12c.3-1.7.41-2.43.46-2.75h1c0,.32-.13,1-.35,2.26a4.76,4.76,0,0,1,4-2.5l-.19,1.09a4.52,4.52,0,0,0-4.22,4l-.93,5.26h-1Z" transform="translate(-2.26 -1.72)"/><path d="M91.6,12.54c-.44,2.61.59,4.23,2.53,4.23a3.51,3.51,0,0,0,3.24-1.9h1a4.82,4.82,0,0,1-4.48,2.85c-3.07,0-3.8-2.65-3.34-5.22.5-2.89,2.38-5.37,5.33-5.37,3.11,0,3.63,2.69,3.29,4.59,0,.28-.1.56-.17.82Zm6.56-.88c.33-2-.48-3.58-2.46-3.58s-3.29,1.45-3.88,3.58Z" transform="translate(-2.26 -1.72)"/><path d="M101.38,14.69a2.18,2.18,0,0,0,2.5,2.1c1.8,0,2.67-.83,2.87-2s-.18-1.72-2.35-2.27c-2.49-.62-3-1.41-2.76-2.74s1.52-2.69,3.8-2.69,3.13,1.39,3,2.83h-1c0-.85-.51-1.9-2.23-1.9s-2.42.87-2.56,1.68.24,1.39,2.15,1.87c2.73.69,3.27,1.62,3,3.14-.33,1.84-2,3-4.14,3-2.31,0-3.38-1.21-3.35-3Z" transform="translate(-2.26 -1.72)"/><path d="M110.6,14.69a2.17,2.17,0,0,0,2.49,2.1c1.8,0,2.68-.83,2.88-2s-.19-1.72-2.35-2.27c-2.5-.62-3-1.41-2.77-2.74s1.52-2.69,3.81-2.69,3.12,1.39,3,2.83h-1c0-.85-.51-1.9-2.23-1.9s-2.41.87-2.56,1.68.24,1.39,2.16,1.87c2.72.69,3.27,1.62,3,3.14-.32,1.84-2,3-4.14,3-2.3,0-3.38-1.21-3.34-3Z" transform="translate(-2.26 -1.72)"/></g></g></svg>